<svg xmlns="http://www.w3.org/2000/svg" xmlns:xlink="http://www.w3.org/1999/xlink" version="1.1" width="511.2" height="169.2" viewBox="0 0 511.2 169.2">
<defs>
<clipPath id="clip_1">
<path transform="matrix(1,0,0,-1,0,169.2)" d="M35.620237 30.885859H160.29921V153.10126H35.620237Z"/>
</clipPath>
<path id="font_2_12" d="M.3779297 .64346316 .12890625 .25390626H.3779297V.64346316M.35205079 .7294922H.47607423V.25390626H.5800781V.171875H.47607423V0H.3779297V.171875H.048828126V.26716615L.35205079 .7294922Z"/>
<path id="font_2_15" d="M.3178711 .34570313C.2709961 .34570313 .23413086 .33317057 .20727539 .30810548 .18041992 .28304038 .16699219 .24853516 .16699219 .20458985 .16699219 .16064453 .18041992 .12613933 .20727539 .10107422 .23413086 .07600912 .2709961 .06347656 .3178711 .06347656 .3647461 .06347656 .40169273 .07609049 .42871095 .10131836 .45572917 .12654622 .46923829 .16097005 .46923829 .20458985 .46923829 .24853516 .45581056 .28304038 .42895509 .30810548 .4020996 .33317057 .36507163 .34570313 .3178711 .34570313M.21923828 .3879547C.17692058 .39838157 .1439616 .41808573 .12036133 .44706727 .09676107 .47605897 .08496094 .5114034 .08496094 .5531006 .08496094 .6114095 .10571289 .6575012 .1472168 .69137576 .1887207 .72525027 .24560547 .7421875 .3178711 .7421875 .39046226 .7421875 .44742839 .72525027 .48876954 .69137576 .53011068 .6575012 .55078127 .6114095 .55078127 .5531006 .55078127 .5114034 .53898116 .47605897 .51538088 .44706727 .4917806 .41808573 .45898438 .39838157 .4169922 .3879547 .46451823 .37687684 .5015462 .35521446 .5280762 .32296754 .55460616 .2907206 .5678711 .25130717 .5678711 .20472718 .5678711 .13404846 .54630538 .07981364 .5031738 .042022706 .46004234 .0042419435 .39827476-.0146484379 .3178711-.0146484379 .23746746-.0146484379 .17569988 .0042419435 .13256836 .042022706 .08943685 .07981364 .067871097 .13404846 .067871097 .20472718 .067871097 .25130717 .081217449 .2907206 .107910159 .32296754 .13460286 .35521446 .17171224 .37687684 .21923828 .3879547M.18310547 .5439453C.18310547 .5061849 .1949056 .47672526 .21850586 .4555664 .24210613 .43440757 .27522788 .42382813 .3178711 .42382813 .3601888 .42382813 .39331056 .43440757 .41723634 .4555664 .4411621 .47672526 .453125 .5061849 .453125 .5439453 .453125 .58170577 .4411621 .61116537 .41723634 .6323242 .39331056 .6534831 .3601888 .6640625 .3178711 .6640625 .27522788 .6640625 .24210613 .6534831 .21850586 .6323242 .1949056 .61116537 .18310547 .58170577 .18310547 .5439453Z"/>
<path id="font_2_9" d="M.12402344 .08300781H.28515626V.63964846L.10986328 .6044922V.69433596L.2841797 .7294922H.3828125V.08300781H.5439453V0H.12402344V.08300781Z"/>
<path id="font_2_10" d="M.19189453 .08300781H.5361328V0H.07324219V.08300781C.110677089 .12174479 .16170247 .17374675 .22631836 .23901367 .29093424 .3042806 .33154298 .34635417 .34814454 .36523438 .37972007 .40071617 .40177409 .43074546 .41430665 .45532228 .4268392 .47989909 .43310548 .50406906 .43310548 .52783206 .43310548 .56656906 .41951499 .59814456 .39233399 .6225586 .36515299 .64697268 .3297526 .6591797 .2861328 .6591797 .25520835 .6591797 .22257488 .6537679 .18823242 .64294436 .15388997 .6321208 .1171875 .61572268 .078125 .59375V.6933594C.11783854 .70947268 .15494792 .721639 .18945313 .7298584 .22395833 .7380778 .25553385 .7421875 .2841797 .7421875 .35970054 .7421875 .41992188 .7233073 .46484376 .6855469 .5097656 .64778646 .53222659 .59733077 .53222659 .5341797 .53222659 .50423178 .5266113 .47583009 .51538088 .4489746 .5041504 .42211915 .48372398 .39046226 .45410157 .3540039 .44596354 .3445638 .42008464 .31730143 .37646485 .2722168 .33284507 .22713216 .27132163 .1640625 .19189453 .08300781Z"/>
<path id="font_2_14" d="M.33007813 .4033203C.28580729 .4033203 .25073243 .3881836 .22485352 .35791017 .19897461 .32763673 .18603516 .2861328 .18603516 .23339844 .18603516 .18098958 .19897461 .13956706 .22485352 .10913086 .25073243 .078694667 .28580729 .06347656 .33007813 .06347656 .37434898 .06347656 .40942384 .078694667 .43530274 .10913086 .46118165 .13956706 .4741211 .18098958 .4741211 .23339844 .4741211 .2861328 .46118165 .32763673 .43530274 .35791017 .40942384 .3881836 .37434898 .4033203 .33007813 .4033203M.5258789 .7128906V.6230469C.50113937 .6347656 .4761556 .64371749 .45092774 .64990237 .42569987 .6560872 .40071617 .6591797 .37597657 .6591797 .3108724 .6591797 .26114909 .6371663 .22680664 .59313967 .19246419 .549113 .17285156 .48258464 .16796875 .3935547 .18717449 .421875 .21126302 .44360353 .24023438 .45874024 .26920573 .47387696 .30110679 .4814453 .3359375 .4814453 .4091797 .4814453 .46704103 .45922853 .5095215 .41479493 .55200198 .37036134 .5732422 .30989585 .5732422 .23339844 .5732422 .15852864 .55110678 .098470058 .50683596 .053222658 .4625651 .007975261 .40364585-.0146484379 .33007813-.0146484379 .24576824-.0146484379 .18131511 .01767985 .13671875 .082336429 .0921224 .146993 .06982422 .24072266 .06982422 .3635254 .06982422 .47883097 .09716797 .5707652 .15185547 .639328 .20654297 .707901 .2799479 .7421875 .3720703 .7421875 .3968099 .7421875 .4217936 .7397461 .44702149 .7348633 .47224937 .72998049 .49853517 .72265627 .5258789 .7128906Z"/>
<path id="font_2_11" d="M.40576173 .3935547C.45296226 .3834432 .48982749 .36239625 .5163574 .33041383 .5428874 .29844157 .55615237 .258962 .55615237 .2119751 .55615237 .13986206 .5314128 .08406067 .4819336 .044570924 .43245445 .005091349 .36214195-.0146484379 .2709961-.0146484379 .24039714-.0146484379 .208903-.01163737 .17651367-.0056152346 .14412435 .00040690104 .110677089 .0094401049 .076171878 .021484375V.1171875C.103515628 .10107422 .13346355 .088907878 .16601563 .08068848 .1985677 .07246908 .23258464 .068359378 .2680664 .068359378 .32991538 .068359378 .37703453 .080607097 .40942384 .10510254 .44181315 .12960816 .4580078 .16521709 .4580078 .21192932 .4580078 .2550405 .44295249 .28876243 .4128418 .3130951 .3827311 .33743797 .3408203 .34960938 .28710938 .34960938H.20214844V.43066407H.29101563C.33951823 .43066407 .3766276 .44032798 .40234376 .45965577 .4280599 .47898356 .44091798 .50683596 .44091798 .5432129 .44091798 .5805664 .42765299 .6092326 .40112306 .6292114 .3745931 .64919027 .33658854 .6591797 .28710938 .6591797 .26009117 .6591797 .2311198 .65625 .20019531 .6503906 .16927083 .64453127 .1352539 .6354167 .09814453 .6230469V.7109375C.13557942 .7213542 .1706543 .7291667 .20336914 .734375 .23608399 .7395833 .2669271 .7421875 .29589845 .7421875 .37076823 .7421875 .43001304 .7251994 .4736328 .69122317 .5172526 .6572571 .5390625 .6113434 .5390625 .55348208 .5390625 .5131785 .52750656 .47913108 .50439456 .45133973 .48128257 .42354838 .44840495 .4042867 .40576173 .3935547Z"/>
<path id="font_2_18" d="M.59521487 .10359192V.2998047H.43408204V.38085938H.6928711V.06738281C.65478518 .040364583 .61279299 .01993815 .56689456 .0061035158 .5209961-.0077311198 .47200523-.0146484379 .41992188-.0146484379 .3059896-.0146484379 .21687825 .018656413 .15258789 .08526611 .08829752 .15187581 .056152345 .2446289 .056152345 .3635254 .056152345 .4827474 .08829752 .57566329 .15258789 .64227297 .21687825 .70888265 .3059896 .7421875 .41992188 .7421875 .4674479 .7421875 .51261398 .7363281 .5554199 .7246094 .5982259 .7128906 .6376953 .695638 .6738281 .67285159V.5673828C.6373698 .59847006 .5986328 .6218669 .5576172 .63757327 .51660159 .6532796 .47347007 .6611328 .42822267 .6611328 .33902995 .6611328 .27205406 .63621017 .22729492 .58636477 .18253581 .53651937 .16015625 .4622396 .16015625 .3635254 .16015625 .26513673 .18253581 .1910197 .22729492 .14117432 .27205406 .09132894 .33902995 .06640625 .42822267 .06640625 .46305339 .06640625 .49414063 .0694224 .5214844 .07545471 .5488281 .08148702 .57340499 .09086609 .59521487 .10359192Z"/>
<path id="font_2_41" d="M.4111328 .46289063C.40104167 .46891276 .39005534 .473348 .37817384 .4761963 .36629234 .4790446 .3531901 .48046876 .3388672 .48046876 .28808595 .48046876 .24910482 .4639028 .22192383 .43077088 .19474285 .39764915 .18115235 .3500875 .18115235 .28808595V0H.09082031V.546875H.18115235V.46191407C.20003255 .49527995 .22460938 .52006027 .2548828 .5362549 .28515626 .5524495 .3219401 .5605469 .36523438 .5605469 .37141929 .5605469 .37825523 .56013998 .3857422 .5593262 .39322917 .5585124 .40152995 .5572917 .41064454 .55566409L.4111328 .46289063Z"/>
<path id="font_2_34" d="M.09423828 .546875H.18408203V0H.09423828V.546875M.09423828 .7597656H.18408203V.6455078H.09423828V.7597656Z"/>
<path id="font_2_29" d="M.45410157 .4638672V.7597656H.5439453V0H.45410157V.08203125C.43522135 .049316408 .41137696 .025024414 .38256837 .009155273 .35375978-.006713867 .3191732-.0146484379 .2788086-.0146484379 .21272786-.0146484379 .15893555 .011764526 .11743164 .064590457 .075927738 .11741638 .05517578 .18686931 .05517578 .27294923 .05517578 .35902915 .075927738 .42848207 .11743164 .48130799 .15893555 .5341339 .21272786 .5605469 .2788086 .5605469 .3191732 .5605469 .35375978 .5526123 .38256837 .53674319 .41137696 .520874 .43522135 .49658204 .45410157 .4638672M.14794922 .27294923C.14794922 .2067159 .16153972 .15475464 .1887207 .11706543 .21590169 .07938639 .25325523 .060546876 .30078126 .060546876 .34830729 .060546876 .3857422 .07938639 .41308595 .11706543 .4404297 .15475464 .45410157 .2067159 .45410157 .27294923 .45410157 .33918254 .4404297 .3911387 .41308595 .42881776 .3857422 .46650697 .34830729 .48535157 .30078126 .48535157 .25325523 .48535157 .21590169 .46650697 .1887207 .42881776 .16153972 .3911387 .14794922 .33918254 .14794922 .27294923Z"/>
<path id="font_2_3" d="M0 0Z"/>
<path id="font_2_42" d="M.4428711 .53125V.44628907C.41748048 .4593099 .39111329 .46907554 .36376954 .47558595 .33642579 .48209635 .30810548 .48535157 .2788086 .48535157 .23421224 .48535157 .20076497 .47850038 .1784668 .46479798 .15616863 .45109559 .14501953 .430542 .14501953 .4031372 .14501953 .38226319 .1529948 .36587016 .16894531 .35395814 .18489583 .3420461 .21695964 .33070884 .26513673 .3199463L.29589845 .31307984C.35970054 .2993876 .4050293 .2800649 .43188478 .2551117 .45874024 .23016866 .47216798 .19535828 .47216798 .15068054 .47216798 .09980774 .45206706 .05953471 .41186524 .02986145 .37166343 .00018819173 .31640626-.0146484379 .24609375-.0146484379 .21679688-.0146484379 .1862793-.01180013 .15454102-.0061035158 .122802738-.00040690104 .08935547 .0081380209 .05419922 .01953125V.11230469C.087402347 .095052089 .12011719 .08211263 .15234375 .07348633 .18457031 .06486002 .21647136 .060546876 .24804688 .060546876 .2903646 .060546876 .32291667 .06780497 .34570313 .08232117 .3684896 .096837367 .3798828 .11730448 .3798828 .14372254 .3798828 .16818746 .37166343 .1869456 .3552246 .19999695 .3387858 .2130483 .30273438 .22560628 .24707031 .2376709L.21582031 .24501038C.16015625 .25674949 .11995443 .274765 .095214847 .299057 .07047526 .32335917 .05810547 .3567098 .05810547 .3991089 .05810547 .4506429 .07633463 .49043275 .11279297 .5184784 .1492513 .54652407 .20100911 .5605469 .2680664 .5605469 .30126954 .5605469 .33251954 .55810549 .3618164 .55322268 .39111329 .54833987 .4181315 .5410156 .4428711 .53125Z"/>
<path id="font_2_46" d="M.05517578 .546875H.4819336V.4649353L.14404297 .072265628H.4819336V0H.04296875V.0819397L.38085938 .47460938H.05517578V.546875Z"/>
<path id="font_2_30" d="M.5620117 .29589845V.25195313H.14892578C.15283203 .1899414 .1714681 .1427002 .20483399 .11022949 .23819988 .07775879 .28466798 .061523439 .34423829 .061523439 .3787435 .061523439 .41219078 .06575521 .44458009 .07421875 .4769694 .08268229 .50911459 .0953776 .5410156 .11230469V.02734375C.50878909 .013671875 .4757487 .0032552083 .44189454-.00390625 .40804038-.011067708 .3736979-.0146484379 .3388672-.0146484379 .2516276-.0146484379 .18253581 .010782878 .1315918 .061645509 .08064779 .11251831 .05517578 .18132019 .05517578 .26805116 .05517578 .35772196 .0793457 .42888896 .12768555 .48155213 .17602539 .5342153 .24121094 .5605469 .3232422 .5605469 .3968099 .5605469 .45499674 .53681948 .49780274 .48936463 .5406087 .44191996 .5620117 .37743125 .5620117 .29589845M.47216798 .32226563C.47151695 .37157188 .45776368 .4109141 .4309082 .44029237 .40405274 .4696808 .3684896 .484375 .32421876 .484375 .27408854 .484375 .2339681 .47016908 .20385742 .4417572 .17374675 .4133555 .15641277 .3733622 .15185547 .32177735L.47216798 .32226563Z"/>
<path id="font_2_21" d="M.09814453 .7294922H.23095703L.5541992 .11921692V.7294922H.64990237V0H.51708987L.19384766 .61027529V0H.09814453V.7294922Z"/>
<clipPath id="clip_3">
<path transform="matrix(1,0,0,-1,0,169.2)" d="M35.620237 30.885859H160.29921V153.10126H35.620237Z"/>
</clipPath>
<path id="font_2_8" d="M.3178711 .6640625C.26708985 .6640625 .22892253 .6390584 .20336914 .5890503 .17781575 .5390422 .16503906 .4638672 .16503906 .3635254 .16503906 .26350913 .17781575 .1884969 .20336914 .13848877 .22892253 .08848063 .26708985 .06347656 .3178711 .06347656 .36897788 .06347656 .40730796 .08848063 .43286134 .13848877 .4584147 .1884969 .4711914 .26350913 .4711914 .3635254 .4711914 .4638672 .4584147 .5390422 .43286134 .5890503 .40730796 .6390584 .36897788 .6640625 .3178711 .6640625M.3178711 .7421875C.3995768 .7421875 .46199546 .7098592 .50512698 .64520266 .5482585 .5805461 .5698242 .48665367 .5698242 .3635254 .5698242 .24072266 .5482585 .146993 .50512698 .082336429 .46199546 .01767985 .3995768-.0146484379 .3178711-.0146484379 .23616536-.0146484379 .17374675 .01767985 .13061524 .082336429 .08748373 .146993 .06591797 .24072266 .06591797 .3635254 .06591797 .48665367 .08748373 .5805461 .13061524 .64520266 .17374675 .7098592 .23616536 .7421875 .3178711 .7421875Z"/>
<path id="font_2_7" d="M.106933597 .12402344H.20996094V0H.106933597V.12402344Z"/>
<clipPath id="clip_4">
<path transform="matrix(1,0,0,-1,0,169.2)" d="M35.620237 30.885859H160.29921V153.10126H35.620237Z"/>
</clipPath>
<clipPath id="clip_5">
<path transform="matrix(1,0,0,-1,0,169.2)" d="M35.620237 30.885859H160.29921V153.10126H35.620237Z"/>
</clipPath>
<clipPath id="clip_6">
<path transform="matrix(1,0,0,-1,0,169.2)" d="M35.620237 30.885859H160.29921V153.10126H35.620237Z"/>
</clipPath>
<clipPath id="clip_7">
<path transform="matrix(1,0,0,-1,0,169.2)" d="M35.620237 30.885859H160.29921V153.10126H35.620237Z"/>
</clipPath>
<path id="font_2_20" d="M.09814453 .7294922H.24511719L.43115235 .23339844 .61816409 .7294922H.7651367V0H.6689453V.640625L.48095704 .140625H.38183595L.19384766 .640625V0H.09814453V.7294922Z"/>
<path id="font_2_39" d="M.30615235 .484375C.25797526 .484375 .21988933 .4655304 .19189453 .4278412 .16389974 .39016215 .14990235 .3385315 .14990235 .27294923 .14990235 .20736695 .16381836 .1557312 .19165039 .11804199 .21948242 .08036295 .25764976 .061523439 .30615235 .061523439 .3540039 .061523439 .3919271 .080444339 .41992188 .11828613 .44791667 .1561381 .46191407 .20769246 .46191407 .27294923 .46191407 .33788047 .44791667 .38934837 .41992188 .4273529 .3919271 .46536765 .3540039 .484375 .30615235 .484375M.30615235 .5605469C.38427735 .5605469 .44563804 .5351105 .49023438 .48423768 .53483077 .43337504 .5571289 .36294557 .5571289 .27294923 .5571289 .1832784 .53483077 .11292521 .49023438 .06188965 .44563804 .010864258 .38427735-.0146484379 .30615235-.0146484379 .22770183-.0146484379 .16625977 .010864258 .12182617 .06188965 .07739258 .11292521 .05517578 .1832784 .05517578 .27294923 .05517578 .36294557 .07739258 .43337504 .12182617 .48423768 .16625977 .5351105 .22770183 .5605469 .30615235 .5605469Z"/>
<path id="font_2_36" d="M.09423828 .7597656H.18408203V0H.09423828V.7597656Z"/>
<path id="font_2_6" d="M.048828126 .31445313H.31201173V.234375H.048828126V.31445313Z"/>
<path id="font_2_31" d="M.37109376 .7597656V.6845703H.28515626C.2529297 .6845703 .23055013 .67808029 .21801758 .6651001 .20548503 .6521301 .19921875 .6287791 .19921875 .595047V.546875H.34716798V.4765625H.19921875V0H.10888672V.4765625H.022949219V.546875H.10888672V.5848236C.10888672 .6457469 .123046878 .6901347 .15136719 .71798709 .1796875 .7458394 .22460938 .7597656 .2861328 .7597656H.37109376Z"/>
<path id="font_2_40" d="M.18115235 .08203125V-.20800781H.09082031V.546875H.18115235V.4638672C.20003255 .49658204 .22387696 .520874 .25268556 .53674319 .28149415 .5526123 .31591798 .5605469 .35595704 .5605469 .42236329 .5605469 .47631837 .5341339 .51782229 .48130799 .5593262 .42848207 .5800781 .35902915 .5800781 .27294923 .5800781 .18686931 .5593262 .11741638 .51782229 .064590457 .47631837 .011764526 .42236329-.0146484379 .35595704-.0146484379 .31591798-.0146484379 .28149415-.006713867 .25268556 .009155273 .22387696 .025024414 .20003255 .049316408 .18115235 .08203125M.4868164 .27294923C.4868164 .33918254 .47322593 .3911387 .44604493 .42881776 .41886393 .46650697 .3815104 .48535157 .33398438 .48535157 .28645835 .48535157 .24910482 .46650697 .22192383 .42881776 .19474285 .3911387 .18115235 .33918254 .18115235 .27294923 .18115235 .2067159 .19474285 .15475464 .22192383 .11706543 .24910482 .07938639 .28645835 .060546876 .33398438 .060546876 .3815104 .060546876 .41886393 .07938639 .44604493 .11706543 .47322593 .15475464 .4868164 .2067159 .4868164 .27294923Z"/>
<path id="font_2_45" d="M.5488281 .546875 .35107423 .28076173 .55908206 0H.453125L.2939453 .21484375 .13476563 0H.028808594L.24121094 .2861328 .046875 .546875H.15283203L.29785157 .35205079 .4428711 .546875H.5488281Z"/>
<path id="font_2_19" d="M.09814453 .7294922H.19677735V0H.09814453V.7294922Z"/>
<path id="font_2_25" d="M.08691406 .7294922H.18603516V.28596498C.18603516 .20772808 .20019531 .15141297 .22851563 .11701965 .25683595 .08262634 .30273438 .06542969 .36621095 .06542969 .42936198 .06542969 .47509767 .08262634 .50341799 .11701965 .5317383 .15141297 .54589846 .20772808 .54589846 .28596498V.7294922H.64501956V.27374269C.64501956 .17858887 .6215007 .10673523 .5744629 .058181764 .5274251 .009628296 .4580078-.0146484379 .36621095-.0146484379 .27408854-.0146484379 .20450847 .009628296 .1574707 .058181764 .110432948 .10673523 .08691406 .17858887 .08691406 .27374269V.7294922Z"/>
<clipPath id="clip_8">
<path transform="matrix(1,0,0,-1,0,169.2)" d="M35.620237 30.885859H160.29921V153.10126H35.620237Z"/>
</clipPath>
<clipPath id="clip_9">
<path transform="matrix(1,0,0,-1,41.28746,112.720798)" d="M-7-7H7V7H-7Z"/>
</clipPath>
<clipPath id="clip_10">
<path transform="matrix(1,0,0,-1,57.479536,84.53937)" d="M-7-7H7V7H-7Z"/>
</clipPath>
<clipPath id="clip_11">
<path transform="matrix(1,0,0,-1,73.67161,61.390336)" d="M-7-7H7V7H-7Z"/>
</clipPath>
<clipPath id="clip_12">
<path transform="matrix(1,0,0,-1,89.86368,49.88771)" d="M-7-7H7V7H-7Z"/>
</clipPath>
<clipPath id="clip_13">
<path transform="matrix(1,0,0,-1,122.247829,35.940778)" d="M-7-7H7V7H-7Z"/>
</clipPath>
<clipPath id="clip_14">
<path transform="matrix(1,0,0,-1,154.63198,27.601374)" d="M-7-7H7V7H-7Z"/>
</clipPath>
<path id="font_2_4" d="M.3100586 .75878909C.2664388 .68391928 .23404949 .6098633 .21289063 .5366211 .19173177 .4633789 .18115235 .38916017 .18115235 .31396485 .18115235 .23876953 .19181316 .16430664 .21313477 .09057617 .23445638 .016845704 .2667643-.057291669 .3100586-.13183594H.2319336C.18310547-.055338544 .14656575 .019856772 .12231445 .09375 .09806315 .16764324 .0859375 .24104817 .0859375 .31396485 .0859375 .386556 .09798177 .4596354 .12207031 .5332031 .14615886 .6067708 .18277996 .6819661 .2319336 .75878909H.3100586Z"/>
<path id="font_2_26" d="M.34277345 .27539063C.27018229 .27539063 .21988933 .26704917 .19189453 .2503662 .16389974 .23369344 .14990235 .20524597 .14990235 .1650238 .14990235 .13298035 .16040039 .107554119 .18139649 .08874512 .20239258 .06994629 .23095703 .060546876 .26708985 .060546876 .31689454 .060546876 .3568522 .07828776 .3869629 .11376953 .41707359 .14926148 .4321289 .19644673 .4321289 .25532533V.27539063H.34277345M.52197268 .3125V0H.4321289V.08300781C.4116211 .049641927 .38606773 .025024414 .35546876 .009155273 .32486979-.006713867 .2874349-.0146484379 .24316406-.0146484379 .18717449-.0146484379 .1426595 .0010986328 .10961914 .032592775 .07657877 .064097087 .060058595 .106287639 .060058595 .15916443 .060058595 .22085063 .08064779 .2673594 .12182617 .2986908 .16300456 .33003236 .22444661 .34570313 .30615235 .34570313H.4321289V.3544922C.4321289 .39583335 .41853843 .42781578 .39135743 .45043946 .36417643 .47306315 .32600913 .484375 .27685548 .484375 .24560547 .484375 .21516927 .4806315 .18554688 .47314454 .15592449 .46565757 .1274414 .4544271 .100097659 .43945313V.52246096C.13297527 .53515627 .1648763 .54467776 .19580078 .5510254 .22672527 .55737307 .25683595 .5605469 .2861328 .5605469 .36523438 .5605469 .4243164 .54003909 .4633789 .49902345 .5024414 .4580078 .52197268 .39583335 .52197268 .3125Z"/>
<path id="font_2_5" d="M.080078128 .75878909H.15820313C.20703125 .6819661 .24357097 .6067708 .26782228 .5332031 .29207359 .4596354 .30419923 .386556 .30419923 .31396485 .30419923 .24104817 .29207359 .16764324 .26782228 .09375 .24357097 .019856772 .20703125-.055338544 .15820313-.13183594H.080078128C.1233724-.057291669 .15568035 .016845704 .17700196 .09057617 .19832357 .16430664 .20898438 .23876953 .20898438 .31396485 .20898438 .38916017 .19832357 .4633789 .17700196 .5366211 .15568035 .6098633 .1233724 .68391928 .080078128 .75878909Z"/>
<path id="font_2_17" d="M.34179688 .6323242 .20800781 .26953126H.47607423L.34179688 .6323242M.2861328 .7294922H.39794923L.67578127 0H.5732422L.50683596 .1875H.17822266L.111816409 0H.0078125L.2861328 .7294922Z"/>
<path id="font_2_38" d="M.5488281 .33007813V0H.45898438V.32714845C.45898438 .379069 .44889323 .41792808 .42871095 .4437256 .40852867 .4695231 .37825523 .48242188 .33789063 .48242188 .28938804 .48242188 .2511393 .46691386 .22314453 .43589784 .19514974 .40489198 .18115235 .36262004 .18115235 .30908204V0H.09082031V.546875H.18115235V.46191407C.20263672 .49495445 .22794597 .5196533 .25708009 .53601077 .2862142 .55236819 .31982423 .5605469 .35791017 .5605469 .4207357 .5605469 .46826173 .54105636 .5004883 .5020752 .53271487 .4630941 .5488281 .40576173 .5488281 .33007813Z"/>
<path id="font_2_43" d="M.18310547 .70214846V.546875H.36816407V.4765625H.18310547V.18005371C.18310547 .13550823 .18920899 .106892909 .20141602 .09420776 .21362305 .0815328 .23844402 .07519531 .2758789 .07519531H.36816407V0H.2758789C.20654297 0 .1586914 .01292928 .13232422 .03878784 .10595703 .06465658 .09277344 .1117452 .09277344 .18005371V.4765625H.026855469V.546875H.09277344V.70214846H.18310547Z"/>
<path id="font_2_44" d="M.029785157 .546875H.125L.29589845 .087890628 .46679688 .546875H.5620117L.3569336 0H.23486328L.029785157 .546875Z"/>
<clipPath id="clip_15">
<path transform="matrix(1,0,0,-1,0,169.2)" d="M210.90407 30.885859H335.58305V153.10126H210.90407Z"/>
</clipPath>
<clipPath id="clip_16">
<path transform="matrix(1,0,0,-1,0,169.2)" d="M210.90407 30.885859H335.58305V153.10126H210.90407Z"/>
</clipPath>
<clipPath id="clip_17">
<path transform="matrix(1,0,0,-1,0,169.2)" d="M210.90407 30.885859H335.58305V153.10126H210.90407Z"/>
</clipPath>
<path id="font_2_13" d="M.107910159 .7294922H.4951172V.6464844H.19824219V.46777345C.21256511 .47265626 .22688802 .47631837 .24121094 .47875978 .25553385 .48120118 .26985679 .48242188 .2841797 .48242188 .3655599 .48242188 .43001304 .4600779 .47753907 .41539 .5250651 .37071229 .5488281 .31021119 .5488281 .23388672 .5488281 .15528362 .52441409 .09420776 .47558595 .05065918 .4267578 .007120768 .35791017-.0146484379 .26904298-.0146484379 .23844402-.0146484379 .20727539-.0120442709 .17553711-.0068359377 .14379883-.0016276041 .1110026 .006184896 .07714844 .016601563V.11621094C.10644531 .100097659 .13671875 .08809408 .16796875 .080200199 .19921875 .07230631 .23225911 .068359378 .26708985 .068359378 .32340495 .068359378 .3680013 .083211269 .4008789 .11291504 .4337565 .14262899 .4501953 .18295288 .4501953 .23388672 .4501953 .28482057 .4337565 .32513938 .4008789 .35484315 .3680013 .3845571 .32340495 .39941407 .26708985 .39941407 .24072266 .39941407 .21443685 .39648438 .18823242 .390625 .162028 .38476563 .1352539 .37565104 .107910159 .36328126V.7294922Z"/>
<clipPath id="clip_18">
<path transform="matrix(1,0,0,-1,0,169.2)" d="M210.90407 30.885859H335.58305V153.10126H210.90407Z"/>
</clipPath>
<clipPath id="clip_19">
<path transform="matrix(1,0,0,-1,0,169.2)" d="M210.90407 30.885859H335.58305V153.10126H210.90407Z"/>
</clipPath>
<clipPath id="clip_20">
<path transform="matrix(1,0,0,-1,0,169.2)" d="M210.90407 30.885859H335.58305V153.10126H210.90407Z"/>
</clipPath>
<path id="font_2_24" d="M-.0029296876 .7294922H.61376956V.6464844H.35498048V0H.25585938V.6464844H-.0029296876V.7294922Z"/>
<path id="font_2_32" d="M.45410157 .2800293C.45410157 .34521485 .44067384 .3957316 .41381837 .4315796 .3869629 .46742759 .34928385 .48535157 .30078126 .48535157 .25260417 .48535157 .21508789 .46742759 .18823242 .4315796 .16137696 .3957316 .14794922 .34521485 .14794922 .2800293 .14794922 .21516927 .16137696 .16481526 .18823242 .12896729 .21508789 .0931193 .25260417 .07519531 .30078126 .07519531 .34928385 .07519531 .3869629 .0931193 .41381837 .12896729 .44067384 .16481526 .45410157 .21516927 .45410157 .2800293M.5439453 .067871097C.5439453-.025227866 .5232747-.09448242 .4819336-.13989258 .44059245-.18530274 .37727867-.20800781 .2919922-.20800781 .26041667-.20800781 .23063152-.20568848 .20263672-.2010498 .17464192-.19641114 .14746094-.18929036 .12109375-.1796875V-.091796878C.14746094-.10611979 .17350261-.11669922 .19921875-.123535159 .22493489-.1303711 .2511393-.13378906 .27783204-.13378906 .3367513-.13378906 .38085938-.1184082 .41015626-.087646488 .43945313-.056884767 .45410157-.010416667 .45410157 .051757814V.09667969C.43554688 .06429037 .41178385 .040079755 .3828125 .024047852 .35384117 .00801595 .3191732 0 .2788086 0 .2117513 0 .15771485 .02557373 .11669922 .07672119 .075683597 .12787883 .05517578 .1956482 .05517578 .2800293 .05517578 .36473594 .075683597 .43266297 .11669922 .48381043 .15771485 .5349681 .2117513 .5605469 .2788086 .5605469 .3191732 .5605469 .35384117 .55253097 .3828125 .536499 .41178385 .5204671 .43554688 .4962565 .45410157 .4638672V.546875H.5439453V.067871097Z"/>
<path id="font_2_35" d="M.09082031 .7597656H.18115235V.31103517L.44921876 .546875H.56396487L.27392579 .29101563 .5761719 0H.45898438L.18115235 .26708985V0H.09082031V.7597656Z"/>
<clipPath id="clip_21">
<path transform="matrix(1,0,0,-1,0,169.2)" d="M210.90407 30.885859H335.58305V153.10126H210.90407Z"/>
</clipPath>
<clipPath id="clip_22">
<path transform="matrix(1,0,0,-1,216.57129,137.90676)" d="M-6.75-6.75H6.75V6.75H-6.75Z"/>
</clipPath>
<clipPath id="clip_23">
<path transform="matrix(1,0,0,-1,232.76337,136.7428)" d="M-6.75-6.75H6.75V6.75H-6.75Z"/>
</clipPath>
<clipPath id="clip_24">
<path transform="matrix(1,0,0,-1,248.95545,134.47309)" d="M-6.75-6.75H6.75V6.75H-6.75Z"/>
</clipPath>
<clipPath id="clip_25">
<path transform="matrix(1,0,0,-1,265.14753,131.3304)" d="M-6.75-6.75H6.75V6.75H-6.75Z"/>
</clipPath>
<clipPath id="clip_26">
<path transform="matrix(1,0,0,-1,297.53169,122.42613)" d="M-6.75-6.75H6.75V6.75H-6.75Z"/>
</clipPath>
<clipPath id="clip_27">
<path transform="matrix(1,0,0,-1,329.91584,110.03)" d="M-6.75-6.75H6.75V6.75H-6.75Z"/>
</clipPath>
<clipPath id="clip_28">
<path transform="matrix(1,0,0,-1,0,169.2)" d="M210.90407 30.885859H335.58305V153.10126H210.90407Z"/>
</clipPath>
<clipPath id="clip_29">
<path transform="matrix(1,0,0,-1,216.57129,136.27722)" d="M-6.75-6.75H6.75V6.75H-6.75Z"/>
</clipPath>
<clipPath id="clip_30">
<path transform="matrix(1,0,0,-1,232.76337,131.5632)" d="M-6.75-6.75H6.75V6.75H-6.75Z"/>
</clipPath>
<clipPath id="clip_31">
<path transform="matrix(1,0,0,-1,248.95545,123.764698)" d="M-6.75-6.75H6.75V6.75H-6.75Z"/>
</clipPath>
<clipPath id="clip_32">
<path transform="matrix(1,0,0,-1,265.14753,110.90298)" d="M-6.75-6.75H6.75V6.75H-6.75Z"/>
</clipPath>
<clipPath id="clip_33">
<path transform="matrix(1,0,0,-1,297.53169,74.93674)" d="M-6.75-6.75H6.75V6.75H-6.75Z"/>
</clipPath>
<clipPath id="clip_34">
<path transform="matrix(1,0,0,-1,329.91584,26.225174)" d="M-6.75-6.75H6.75V6.75H-6.75Z"/>
</clipPath>
<path id="font_2_27" d="M.4868164 .27294923C.4868164 .33918254 .47322593 .3911387 .44604493 .42881776 .41886393 .46650697 .3815104 .48535157 .33398438 .48535157 .28645835 .48535157 .24910482 .46650697 .22192383 .42881776 .19474285 .3911387 .18115235 .33918254 .18115235 .27294923 .18115235 .2067159 .19474285 .15475464 .22192383 .11706543 .24910482 .07938639 .28645835 .060546876 .33398438 .060546876 .3815104 .060546876 .41886393 .07938639 .44604493 .11706543 .47322593 .15475464 .4868164 .2067159 .4868164 .27294923M.18115235 .4638672C.20003255 .49658204 .22387696 .520874 .25268556 .53674319 .28149415 .5526123 .31591798 .5605469 .35595704 .5605469 .42236329 .5605469 .47631837 .5341339 .51782229 .48130799 .5593262 .42848207 .5800781 .35902915 .5800781 .27294923 .5800781 .18686931 .5593262 .11741638 .51782229 .064590457 .47631837 .011764526 .42236329-.0146484379 .35595704-.0146484379 .31591798-.0146484379 .28149415-.006713867 .25268556 .009155273 .22387696 .025024414 .20003255 .049316408 .18115235 .08203125V0H.09082031V.7597656H.18115235V.4638672Z"/>
<path id="font_2_23" d="M.53515627 .7050781V.60839846C.49772135 .62646487 .46240235 .6399333 .42919923 .6488037 .3959961 .65767416 .36393229 .6621094 .3330078 .6621094 .27929688 .6621094 .23787435 .6516774 .20874024 .6308136 .17960613 .6099599 .16503906 .58030197 .16503906 .5418396 .16503906 .5095723 .17472331 .48520408 .1940918 .46873475 .21346028 .4522756 .25016276 .43899537 .30419923 .42889405L.36376954 .41670228C.43733726 .4026947 .49161784 .37802125 .5266113 .34268189 .5616048 .3073527 .57910159 .26005046 .57910159 .20077515 .57910159 .13010662 .5554199 .076533 .50805667 .04005432 .46069337 .0035858155 .39127604-.0146484379 .2998047-.0146484379 .26529948-.0146484379 .228597-.010701497 .18969727-.0028076173 .15079753 .005086263 .11051432 .016764323 .068847659 .032226564V.13378906C.10888672 .11116537 .14811199 .09411621 .18652344 .0826416 .22493489 .07116699 .2626953 .06542969 .2998047 .06542969 .35611979 .06542969 .3995768 .07650757 .43017579 .09866333 .46077476 .12082926 .47607423 .15244039 .47607423 .1934967 .47607423 .22934468 .4650879 .25737 .44311524 .27757264 .42114259 .29778544 .38509117 .3129425 .33496095 .32304383L.27490235 .3347473C.20133464 .3494059 .14811199 .37236534 .115234378 .4036255 .08235677 .43489585 .06591797 .4783783 .06591797 .5340729 .06591797 .5985565 .08862305 .6493632 .1340332 .6864929 .17944336 .7236226 .24202474 .7421875 .32177735 .7421875 .35595704 .7421875 .39078776 .73909506 .42626954 .73291018 .4617513 .7267253 .49804688 .71744796 .53515627 .7050781Z"/>
<path id="font_2_28" d="M.48779298 .5263672V.4423828C.46240235 .45638023 .43693034 .46687828 .41137696 .47387696 .38582359 .48087565 .36002604 .484375 .33398438 .484375 .27571617 .484375 .23046875 .46585594 .19824219 .42881776 .16601563 .39178977 .14990235 .3398336 .14990235 .27294923 .14990235 .20606487 .16601563 .15410359 .19824219 .11706543 .23046875 .08003744 .27571617 .061523439 .33398438 .061523439 .36002604 .061523439 .38582359 .06502279 .41137696 .072021488 .43693034 .07902018 .46240235 .08951823 .48779298 .103515628V.020507813C.46272788 .0087890629 .43676759 0 .4099121-.005859375 .38305665-.01171875 .3544922-.0146484379 .32421876-.0146484379 .24186199-.0146484379 .1764323 .011271159 .12792969 .06311035 .079427089 .11495972 .05517578 .184906 .05517578 .27294923 .05517578 .36229453 .07967123 .43256126 .12866211 .4837494 .177653 .5349477 .24479167 .5605469 .33007813 .5605469 .3577474 .5605469 .38476563 .55769857 .4111328 .55200198 .4375 .54630538 .46305339 .53776046 .48779298 .5263672Z"/>
<path id="font_2_16" d="M.10986328 .0146484379V.10449219C.13460286 .09277344 .15966797 .08382162 .1850586 .07763672 .21044922 .07145182 .23535156 .068359378 .25976563 .068359378 .32486979 .068359378 .3745931 .09029134 .40893556 .13415528 .44327799 .17801921 .46289063 .2446289 .46777345 .33398438 .44889323 .3059896 .42496745 .28450523 .3959961 .26953126 .36702476 .25455729 .33496095 .24707031 .2998047 .24707031 .22688802 .24707031 .16918946 .26912437 .12670899 .31323243 .084228519 .35734049 .06298828 .41764323 .06298828 .49414063 .06298828 .56901046 .085123699 .62906906 .12939453 .6743164 .17366536 .7195638 .23258464 .7421875 .30615235 .7421875 .39046226 .7421875 .45483399 .7098592 .49926759 .64520266 .5437012 .5805461 .56591799 .48665367 .56591799 .3635254 .56591799 .24854534 .5386556 .1567688 .48413087 .0881958 .4296061 .019632975 .35628257-.0146484379 .26416017-.0146484379 .23942058-.0146484379 .21435547-.012207031 .18896485-.0073242189 .16357422-.0024414063 .13720703 .0048828127 .10986328 .0146484379M.30615235 .32421876C.3504232 .32421876 .38549806 .33935548 .41137696 .3696289 .43725587 .39990235 .4501953 .44140626 .4501953 .49414063 .4501953 .5465495 .43725587 .587972 .41137696 .6184082 .38549806 .6488444 .3504232 .6640625 .30615235 .6640625 .2618815 .6640625 .22680664 .6488444 .20092774 .6184082 .17504883 .587972 .16210938 .5465495 .16210938 .49414063 .16210938 .44140626 .17504883 .39990235 .20092774 .3696289 .22680664 .33935548 .2618815 .32421876 .30615235 .32421876Z"/>
<path id="font_2_33" d="M.5488281 .33007813V0H.45898438V.32714845C.45898438 .379069 .44889323 .41792808 .42871095 .4437256 .40852867 .4695231 .37825523 .48242188 .33789063 .48242188 .28938804 .48242188 .2511393 .46691386 .22314453 .43589784 .19514974 .40489198 .18115235 .36262004 .18115235 .30908204V0H.09082031V.7597656H.18115235V.46191407C.20263672 .49495445 .22794597 .5196533 .25708009 .53601077 .2862142 .55236819 .31982423 .5605469 .35791017 .5605469 .4207357 .5605469 .46826173 .54105636 .5004883 .5020752 .53271487 .4630941 .5488281 .40576173 .5488281 .33007813Z"/>
<clipPath id="clip_35">
<path transform="matrix(1,0,0,-1,0,169.2)" d="M383.64103 30.885859H508.32V153.10126H383.64103Z"/>
</clipPath>
<clipPath id="clip_36">
<path transform="matrix(1,0,0,-1,0,169.2)" d="M383.64103 30.885859H508.32V153.10126H383.64103Z"/>
</clipPath>
<clipPath id="clip_37">
<path transform="matrix(1,0,0,-1,0,169.2)" d="M383.64103 30.885859H508.32V153.10126H383.64103Z"/>
</clipPath>
<clipPath id="clip_38">
<path transform="matrix(1,0,0,-1,0,169.2)" d="M383.64103 30.885859H508.32V153.10126H383.64103Z"/>
</clipPath>
<clipPath id="clip_39">
<path transform="matrix(1,0,0,-1,0,169.2)" d="M383.64103 30.885859H508.32V153.10126H383.64103Z"/>
</clipPath>
<clipPath id="clip_40">
<path transform="matrix(1,0,0,-1,0,169.2)" d="M383.64103 30.885859H508.32V153.10126H383.64103Z"/>
</clipPath>
<path id="font_2_22" d="M.19677735 .6484375V.37402345H.32080079C.36669923 .37402345 .402181 .3859253 .4272461 .409729 .4523112 .4335327 .46484376 .4674479 .46484376 .5114746 .46484376 .5551758 .4523112 .5889282 .4272461 .61273196 .402181 .63653567 .36669923 .6484375 .32080079 .6484375H.19677735M.09814453 .7294922H.32080079C.4025065 .7294922 .46427409 .71099856 .5061035 .67401126 .5479329 .6370239 .56884768 .58284506 .56884768 .5114746 .56884768 .43945313 .5479329 .38503013 .5061035 .34820558 .46427409 .311381 .4025065 .29296876 .32080079 .29296876H.19677735V0H.09814453V.7294922Z"/>
<path id="font_2_37" d="M.52001956 .44189454C.54248049 .48242188 .56933596 .5123291 .60058596 .5316162 .63183596 .5509033 .6686198 .5605469 .7109375 .5605469 .7679036 .5605469 .81184896 .5405629 .84277346 .5005951 .87369796 .46063743 .88916018 .40379844 .88916018 .33007813V0H.7988281V.32714845C.7988281 .37972007 .7895508 .41874186 .7709961 .44421388 .7524414 .46968589 .7241211 .48242188 .68603518 .48242188 .63948568 .48242188 .60270187 .46691386 .5756836 .43589784 .54866537 .40489198 .53515627 .36262004 .53515627 .30908204V0H.44482423V.32714845C.44482423 .38004557 .43554688 .41914878 .4169922 .444458 .3984375 .46976725 .36979167 .48242188 .3310547 .48242188 .28515626 .48242188 .24869792 .4668325 .22167969 .4356537 .19466146 .40448509 .18115235 .36229453 .18115235 .30908204V0H.09082031V.546875H.18115235V.46191407C.20166016 .49560548 .22623699 .5204671 .2548828 .536499 .28352867 .55253097 .31754557 .5605469 .3569336 .5605469 .39664714 .5605469 .43041993 .55041506 .45825196 .53015139 .48608399 .5098877 .50667318 .48046876 .52001956 .44189454Z"/>
<clipPath id="clip_41">
<path transform="matrix(1,0,0,-1,0,169.2)" d="M383.64103 30.885859H508.32V153.10126H383.64103Z"/>
</clipPath>
<clipPath id="clip_42">
<path transform="matrix(1,0,0,-1,400.72035,94.85978)" d="M-7-7H7V7H-7Z"/>
</clipPath>
<clipPath id="clip_43">
<path transform="matrix(1,0,0,-1,417.79966,36.467985)" d="M-7-7H7V7H-7Z"/>
</clipPath>
<clipPath id="clip_44">
<path transform="matrix(1,0,0,-1,434.87898,41.89978)" d="M-7-7H7V7H-7Z"/>
</clipPath>
<clipPath id="clip_45">
<path transform="matrix(1,0,0,-1,469.0376,71.77466)" d="M-7-7H7V7H-7Z"/>
</clipPath>
<clipPath id="clip_46">
<path transform="matrix(1,0,0,-1,503.19624,94.85979)" d="M-7-7H7V7H-7Z"/>
</clipPath>
</defs>
<path transform="matrix(1,0,0,-1,0,169.2)" d="M0 0H511.2V169.2H0Z" fill="#ffffff"/>
<path transform="matrix(1,0,0,-1,0,169.2)" d="M35.620237 30.885859H160.29921V153.10126H35.620237Z" fill="#ffffff"/>
<g clip-path="url(#clip_1)">
<path transform="matrix(1,0,0,-1,0,169.2)" d="M86.22047 30.885859H93.506908V153.10126H86.22047Z" fill="#dceaf8"/>
<path transform="matrix(1,0,0,-1,0,169.2)" stroke-width="1" stroke-linecap="butt" stroke-miterlimit="10" stroke-linejoin="miter" fill="none" stroke="#dceaf8" d="M86.22047 30.885859H93.506908V153.10126H86.22047Z"/>
</g>
<path transform="matrix(1,0,0,-1,0,169.2)" d="M41.28746 30.885859V27.385859"/>
<path transform="matrix(1,0,0,-1,0,169.2)" stroke-width=".8" stroke-linecap="butt" stroke-linejoin="round" fill="none" stroke="#000000" d="M41.28746 30.885859V27.385859"/>
<use data-text="4" xlink:href="#font_2_12" transform="matrix(8,0,0,-8,38.740587,151.39226)"/>
<path transform="matrix(1,0,0,-1,0,169.2)" d="M57.479536 30.885859V27.385859"/>
<path transform="matrix(1,0,0,-1,0,169.2)" stroke-width=".8" stroke-linecap="butt" stroke-linejoin="round" fill="none" stroke="#000000" d="M57.479536 30.885859V27.385859"/>
<use data-text="8" xlink:href="#font_2_15" transform="matrix(8,0,0,-8,54.93266,151.39226)"/>
<path transform="matrix(1,0,0,-1,0,169.2)" d="M73.67161 30.885859V27.385859"/>
<path transform="matrix(1,0,0,-1,0,169.2)" stroke-width=".8" stroke-linecap="butt" stroke-linejoin="round" fill="none" stroke="#000000" d="M73.67161 30.885859V27.385859"/>
<use data-text="1" xlink:href="#font_2_9" transform="matrix(8,0,0,-8,68.57786,151.39226)"/>
<use data-text="2" xlink:href="#font_2_10" transform="matrix(8,0,0,-8,73.66976,151.39226)"/>
<path transform="matrix(1,0,0,-1,0,169.2)" d="M89.863689 30.885859V27.385859"/>
<path transform="matrix(1,0,0,-1,0,169.2)" stroke-width=".8" stroke-linecap="butt" stroke-linejoin="round" fill="none" stroke="#000000" d="M89.863689 30.885859V27.385859"/>
<use data-text="1" xlink:href="#font_2_9" transform="matrix(8,0,0,-8,84.769939,151.39226)"/>
<use data-text="6" xlink:href="#font_2_14" transform="matrix(8,0,0,-8,89.86184,151.39226)"/>
<path transform="matrix(1,0,0,-1,0,169.2)" d="M122.24783 30.885859V27.385859"/>
<path transform="matrix(1,0,0,-1,0,169.2)" stroke-width=".8" stroke-linecap="butt" stroke-linejoin="round" fill="none" stroke="#000000" d="M122.24783 30.885859V27.385859"/>
<use data-text="2" xlink:href="#font_2_10" transform="matrix(8,0,0,-8,117.15408,151.39226)"/>
<use data-text="4" xlink:href="#font_2_12" transform="matrix(8,0,0,-8,122.24599,151.39226)"/>
<path transform="matrix(1,0,0,-1,0,169.2)" d="M154.63199 30.885859V27.385859"/>
<path transform="matrix(1,0,0,-1,0,169.2)" stroke-width=".8" stroke-linecap="butt" stroke-linejoin="round" fill="none" stroke="#000000" d="M154.63199 30.885859V27.385859"/>
<use data-text="3" xlink:href="#font_2_11" transform="matrix(8,0,0,-8,149.53824,151.39226)"/>
<use data-text="2" xlink:href="#font_2_10" transform="matrix(8,0,0,-8,154.63014,151.39226)"/>
<use data-text="G" xlink:href="#font_2_18" transform="matrix(9,0,0,-9,73.5691,164.15789)"/>
<use data-text="r" xlink:href="#font_2_41" transform="matrix(9,0,0,-9,80.53873,164.15789)"/>
<use data-text="i" xlink:href="#font_2_34" transform="matrix(9,0,0,-9,84.24066,164.15789)"/>
<use data-text="d" xlink:href="#font_2_29" transform="matrix(9,0,0,-9,86.74217,164.15789)"/>
<use data-text=" " xlink:href="#font_2_3" transform="matrix(9,0,0,-9,92.46303,164.15789)"/>
<use data-text="s" xlink:href="#font_2_42" transform="matrix(9,0,0,-9,95.32356,164.15789)"/>
<use data-text="i" xlink:href="#font_2_34" transform="matrix(9,0,0,-9,100.0111,164.15789)"/>
<use data-text="z" xlink:href="#font_2_46" transform="matrix(9,0,0,-9,102.51261,164.15789)"/>
<use data-text="e" xlink:href="#font_2_30" transform="matrix(9,0,0,-9,107.23224,164.15789)"/>
<use data-text=" " xlink:href="#font_2_3" transform="matrix(9,0,0,-9,112.76138,164.15789)"/>
<use data-text="N" xlink:href="#font_2_21" transform="matrix(9,0,0,-9,115.62192,164.15789)"/>
<g clip-path="url(#clip_3)">
<path transform="matrix(1,0,0,-1,0,169.2)" stroke-width=".6" stroke-linecap="square" stroke-linejoin="round" fill="none" stroke="#e5e7eb" d="M35.620237 30.885859H160.29921"/>
</g>
<path transform="matrix(1,0,0,-1,0,169.2)" d="M35.620237 30.885859H32.120237"/>
<path transform="matrix(1,0,0,-1,0,169.2)" stroke-width=".8" stroke-linecap="butt" stroke-linejoin="round" fill="none" stroke="#000000" d="M35.620237 30.885859H32.120237"/>
<use data-text="0" xlink:href="#font_2_8" transform="matrix(8,0,0,-8,15.8858599,141.3532)"/>
<use data-text="." xlink:href="#font_2_7" transform="matrix(8,0,0,-8,20.977766,141.3532)"/>
<use data-text="0" xlink:href="#font_2_8" transform="matrix(8,0,0,-8,23.525673,141.3532)"/>
<g clip-path="url(#clip_4)">
<path transform="matrix(1,0,0,-1,0,169.2)" stroke-width=".6" stroke-linecap="square" stroke-linejoin="round" fill="none" stroke="#e5e7eb" d="M35.620237 59.64242H160.29921"/>
</g>
<path transform="matrix(1,0,0,-1,0,169.2)" d="M35.620237 59.64242H32.120237"/>
<path transform="matrix(1,0,0,-1,0,169.2)" stroke-width=".8" stroke-linecap="butt" stroke-linejoin="round" fill="none" stroke="#000000" d="M35.620237 59.64242H32.120237"/>
<use data-text="0" xlink:href="#font_2_8" transform="matrix(8,0,0,-8,15.8858599,112.596637)"/>
<use data-text="." xlink:href="#font_2_7" transform="matrix(8,0,0,-8,20.977766,112.596637)"/>
<use data-text="2" xlink:href="#font_2_10" transform="matrix(8,0,0,-8,23.525673,112.596637)"/>
<g clip-path="url(#clip_5)">
<path transform="matrix(1,0,0,-1,0,169.2)" stroke-width=".6" stroke-linecap="square" stroke-linejoin="round" fill="none" stroke="#e5e7eb" d="M35.620237 88.39899H160.29921"/>
</g>
<path transform="matrix(1,0,0,-1,0,169.2)" d="M35.620237 88.39899H32.120237"/>
<path transform="matrix(1,0,0,-1,0,169.2)" stroke-width=".8" stroke-linecap="butt" stroke-linejoin="round" fill="none" stroke="#000000" d="M35.620237 88.39899H32.120237"/>
<use data-text="0" xlink:href="#font_2_8" transform="matrix(8,0,0,-8,15.8858599,83.84007)"/>
<use data-text="." xlink:href="#font_2_7" transform="matrix(8,0,0,-8,20.977766,83.84007)"/>
<use data-text="4" xlink:href="#font_2_12" transform="matrix(8,0,0,-8,23.525673,83.84007)"/>
<g clip-path="url(#clip_6)">
<path transform="matrix(1,0,0,-1,0,169.2)" stroke-width=".6" stroke-linecap="square" stroke-linejoin="round" fill="none" stroke="#e5e7eb" d="M35.620237 117.15555H160.29921"/>
</g>
<path transform="matrix(1,0,0,-1,0,169.2)" d="M35.620237 117.15555H32.120237"/>
<path transform="matrix(1,0,0,-1,0,169.2)" stroke-width=".8" stroke-linecap="butt" stroke-linejoin="round" fill="none" stroke="#000000" d="M35.620237 117.15555H32.120237"/>
<use data-text="0" xlink:href="#font_2_8" transform="matrix(8,0,0,-8,15.8858599,55.08351)"/>
<use data-text="." xlink:href="#font_2_7" transform="matrix(8,0,0,-8,20.977766,55.08351)"/>
<use data-text="6" xlink:href="#font_2_14" transform="matrix(8,0,0,-8,23.525673,55.08351)"/>
<g clip-path="url(#clip_7)">
<path transform="matrix(1,0,0,-1,0,169.2)" stroke-width=".6" stroke-linecap="square" stroke-linejoin="round" fill="none" stroke="#e5e7eb" d="M35.620237 145.91211H160.29921"/>
</g>
<path transform="matrix(1,0,0,-1,0,169.2)" d="M35.620237 145.91211H32.120237"/>
<path transform="matrix(1,0,0,-1,0,169.2)" stroke-width=".8" stroke-linecap="butt" stroke-linejoin="round" fill="none" stroke="#000000" d="M35.620237 145.91211H32.120237"/>
<use data-text="0" xlink:href="#font_2_8" transform="matrix(8,0,0,-8,15.8858599,26.32695)"/>
<use data-text="." xlink:href="#font_2_7" transform="matrix(8,0,0,-8,20.977766,26.32695)"/>
<use data-text="8" xlink:href="#font_2_15" transform="matrix(8,0,0,-8,23.525673,26.32695)"/>
<use data-text="M" xlink:href="#font_2_20" transform="matrix(0,-9,-9,-0,9.72375,122.28457)"/>
<use data-text="o" xlink:href="#font_2_39" transform="matrix(0,-9,-9,-0,9.72375,114.51708)"/>
<use data-text="d" xlink:href="#font_2_29" transform="matrix(0,-9,-9,-0,9.72375,109.01543)"/>
<use data-text="e" xlink:href="#font_2_30" transform="matrix(0,-9,-9,-0,9.72375,103.29457)"/>
<use data-text="l" xlink:href="#font_2_36" transform="matrix(0,-9,-9,-0,9.72375,97.76543)"/>
<use data-text="-" xlink:href="#font_2_6" transform="matrix(0,-9,-9,-0,9.72375,95.263919)"/>
<use data-text="f" xlink:href="#font_2_31" transform="matrix(0,-9,-9,-0,9.72375,92.012477)"/>
<use data-text="r" xlink:href="#font_2_41" transform="matrix(0,-9,-9,-0,9.72375,88.84105)"/>
<use data-text="e" xlink:href="#font_2_30" transform="matrix(0,-9,-9,-0,9.72375,85.34225)"/>
<use data-text="e" xlink:href="#font_2_30" transform="matrix(0,-9,-9,-0,9.72375,79.81311)"/>
<use data-text=" " xlink:href="#font_2_3" transform="matrix(0,-9,-9,-0,9.72375,74.283969)"/>
<use data-text="p" xlink:href="#font_2_40" transform="matrix(0,-9,-9,-0,9.72375,71.42343)"/>
<use data-text="i" xlink:href="#font_2_34" transform="matrix(0,-9,-9,-0,9.72375,65.702579)"/>
<use data-text="x" xlink:href="#font_2_45" transform="matrix(0,-9,-9,-0,9.72375,63.20106)"/>
<use data-text="e" xlink:href="#font_2_30" transform="matrix(0,-9,-9,-0,9.72375,58.15236)"/>
<use data-text="l" xlink:href="#font_2_36" transform="matrix(0,-9,-9,-0,9.72375,52.623224)"/>
<use data-text="-" xlink:href="#font_2_6" transform="matrix(0,-9,-9,-0,9.72375,50.12171)"/>
<use data-text="I" xlink:href="#font_2_19" transform="matrix(0,-9,-9,-0,9.72375,46.87027)"/>
<use data-text="o" xlink:href="#font_2_39" transform="matrix(0,-9,-9,-0,9.72375,44.213319)"/>
<use data-text="U" xlink:href="#font_2_25" transform="matrix(0,-9,-9,-0,9.72375,38.711664)"/>
<g clip-path="url(#clip_8)">
<path transform="matrix(1,0,0,-1,0,169.2)" stroke-width="1.4" stroke-linecap="square" stroke-linejoin="round" fill="none" stroke="#2563a6" d="M41.28746 56.4792 57.479536 84.66063 73.67161 107.80966 89.863689 119.31229 122.24783 133.25922 154.63199 141.59862"/>
<g clip-path="url(#clip_9)">
<path transform="matrix(1,0,0,-1,41.28746,112.720798)" d="M0-2C.530406-2 1.03916-1.789267 1.414214-1.414214 1.789267-1.03916 2-.530406 2 0 2 .530406 1.789267 1.03916 1.414214 1.414214 1.03916 1.789267 .530406 2 0 2-.530406 2-1.03916 1.789267-1.414214 1.414214-1.789267 1.03916-2 .530406-2 0-2-.530406-1.789267-1.03916-1.414214-1.414214-1.03916-1.789267-.530406-2 0-2Z" fill="#2563a6"/>
<path transform="matrix(1,0,0,-1,41.28746,112.720798)" stroke-width="1" stroke-linecap="butt" stroke-linejoin="round" fill="none" stroke="#2563a6" d="M0-2C.530406-2 1.03916-1.789267 1.414214-1.414214 1.789267-1.03916 2-.530406 2 0 2 .530406 1.789267 1.03916 1.414214 1.414214 1.03916 1.789267 .530406 2 0 2-.530406 2-1.03916 1.789267-1.414214 1.414214-1.789267 1.03916-2 .530406-2 0-2-.530406-1.789267-1.03916-1.414214-1.414214-1.03916-1.789267-.530406-2 0-2Z"/>
</g>
<g clip-path="url(#clip_10)">
<path transform="matrix(1,0,0,-1,57.479536,84.53937)" d="M0-2C.530406-2 1.03916-1.789267 1.414214-1.414214 1.789267-1.03916 2-.530406 2 0 2 .530406 1.789267 1.03916 1.414214 1.414214 1.03916 1.789267 .530406 2 0 2-.530406 2-1.03916 1.789267-1.414214 1.414214-1.789267 1.03916-2 .530406-2 0-2-.530406-1.789267-1.03916-1.414214-1.414214-1.03916-1.789267-.530406-2 0-2Z" fill="#2563a6"/>
<path transform="matrix(1,0,0,-1,57.479536,84.53937)" stroke-width="1" stroke-linecap="butt" stroke-linejoin="round" fill="none" stroke="#2563a6" d="M0-2C.530406-2 1.03916-1.789267 1.414214-1.414214 1.789267-1.03916 2-.530406 2 0 2 .530406 1.789267 1.03916 1.414214 1.414214 1.03916 1.789267 .530406 2 0 2-.530406 2-1.03916 1.789267-1.414214 1.414214-1.789267 1.03916-2 .530406-2 0-2-.530406-1.789267-1.03916-1.414214-1.414214-1.03916-1.789267-.530406-2 0-2Z"/>
</g>
<g clip-path="url(#clip_11)">
<path transform="matrix(1,0,0,-1,73.67161,61.390336)" d="M0-2C.530406-2 1.03916-1.789267 1.414214-1.414214 1.789267-1.03916 2-.530406 2 0 2 .530406 1.789267 1.03916 1.414214 1.414214 1.03916 1.789267 .530406 2 0 2-.530406 2-1.03916 1.789267-1.414214 1.414214-1.789267 1.03916-2 .530406-2 0-2-.530406-1.789267-1.03916-1.414214-1.414214-1.03916-1.789267-.530406-2 0-2Z" fill="#2563a6"/>
<path transform="matrix(1,0,0,-1,73.67161,61.390336)" stroke-width="1" stroke-linecap="butt" stroke-linejoin="round" fill="none" stroke="#2563a6" d="M0-2C.530406-2 1.03916-1.789267 1.414214-1.414214 1.789267-1.03916 2-.530406 2 0 2 .530406 1.789267 1.03916 1.414214 1.414214 1.03916 1.789267 .530406 2 0 2-.530406 2-1.03916 1.789267-1.414214 1.414214-1.789267 1.03916-2 .530406-2 0-2-.530406-1.789267-1.03916-1.414214-1.414214-1.03916-1.789267-.530406-2 0-2Z"/>
</g>
<g clip-path="url(#clip_12)">
<path transform="matrix(1,0,0,-1,89.86368,49.88771)" d="M0-2C.530406-2 1.03916-1.789267 1.414214-1.414214 1.789267-1.03916 2-.530406 2 0 2 .530406 1.789267 1.03916 1.414214 1.414214 1.03916 1.789267 .530406 2 0 2-.530406 2-1.03916 1.789267-1.414214 1.414214-1.789267 1.03916-2 .530406-2 0-2-.530406-1.789267-1.03916-1.414214-1.414214-1.03916-1.789267-.530406-2 0-2Z" fill="#2563a6"/>
<path transform="matrix(1,0,0,-1,89.86368,49.88771)" stroke-width="1" stroke-linecap="butt" stroke-linejoin="round" fill="none" stroke="#2563a6" d="M0-2C.530406-2 1.03916-1.789267 1.414214-1.414214 1.789267-1.03916 2-.530406 2 0 2 .530406 1.789267 1.03916 1.414214 1.414214 1.03916 1.789267 .530406 2 0 2-.530406 2-1.03916 1.789267-1.414214 1.414214-1.789267 1.03916-2 .530406-2 0-2-.530406-1.789267-1.03916-1.414214-1.414214-1.03916-1.789267-.530406-2 0-2Z"/>
</g>
<g clip-path="url(#clip_13)">
<path transform="matrix(1,0,0,-1,122.247829,35.940778)" d="M0-2C.530406-2 1.03916-1.789267 1.414214-1.414214 1.789267-1.03916 2-.530406 2 0 2 .530406 1.789267 1.03916 1.414214 1.414214 1.03916 1.789267 .530406 2 0 2-.530406 2-1.03916 1.789267-1.414214 1.414214-1.789267 1.03916-2 .530406-2 0-2-.530406-1.789267-1.03916-1.414214-1.414214-1.03916-1.789267-.530406-2 0-2Z" fill="#2563a6"/>
<path transform="matrix(1,0,0,-1,122.247829,35.940778)" stroke-width="1" stroke-linecap="butt" stroke-linejoin="round" fill="none" stroke="#2563a6" d="M0-2C.530406-2 1.03916-1.789267 1.414214-1.414214 1.789267-1.03916 2-.530406 2 0 2 .530406 1.789267 1.03916 1.414214 1.414214 1.03916 1.789267 .530406 2 0 2-.530406 2-1.03916 1.789267-1.414214 1.414214-1.789267 1.03916-2 .530406-2 0-2-.530406-1.789267-1.03916-1.414214-1.414214-1.03916-1.789267-.530406-2 0-2Z"/>
</g>
<g clip-path="url(#clip_14)">
<path transform="matrix(1,0,0,-1,154.63198,27.601374)" d="M0-2C.530406-2 1.03916-1.789267 1.414214-1.414214 1.789267-1.03916 2-.530406 2 0 2 .530406 1.789267 1.03916 1.414214 1.414214 1.03916 1.789267 .530406 2 0 2-.530406 2-1.03916 1.789267-1.414214 1.414214-1.789267 1.03916-2 .530406-2 0-2-.530406-1.789267-1.03916-1.414214-1.414214-1.03916-1.789267-.530406-2 0-2Z" fill="#2563a6"/>
<path transform="matrix(1,0,0,-1,154.63198,27.601374)" stroke-width="1" stroke-linecap="butt" stroke-linejoin="round" fill="none" stroke="#2563a6" d="M0-2C.530406-2 1.03916-1.789267 1.414214-1.414214 1.789267-1.03916 2-.530406 2 0 2 .530406 1.789267 1.03916 1.414214 1.414214 1.03916 1.789267 .530406 2 0 2-.530406 2-1.03916 1.789267-1.414214 1.414214-1.789267 1.03916-2 .530406-2 0-2-.530406-1.789267-1.03916-1.414214-1.414214-1.03916-1.789267-.530406-2 0-2Z"/>
</g>
</g>
<path transform="matrix(1,0,0,-1,0,169.2)" stroke-width=".6" stroke-linecap="square" stroke-miterlimit="10" stroke-linejoin="miter" fill="none" stroke="#7b8289" d="M35.620237 30.885859V153.10126"/>
<path transform="matrix(1,0,0,-1,0,169.2)" stroke-width=".6" stroke-linecap="square" stroke-miterlimit="10" stroke-linejoin="miter" fill="none" stroke="#7b8289" d="M35.620237 30.885859H160.29921"/>
<use data-text="(" xlink:href="#font_2_4" transform="matrix(9.5,0,0,-9.5,32.32691,10.09874)"/>
<use data-text="a" xlink:href="#font_2_26" transform="matrix(9.5,0,0,-9.5,36.028738,10.09874)"/>
<use data-text=")" xlink:href="#font_2_5" transform="matrix(9.5,0,0,-9.5,41.858827,10.09874)"/>
<use data-text=" " xlink:href="#font_2_3" transform="matrix(9.5,0,0,-9.5,45.560655,10.09874)"/>
<use data-text="A" xlink:href="#font_2_17" transform="matrix(9.5,0,0,-9.5,48.577505,10.09874)"/>
<use data-text="n" xlink:href="#font_2_38" transform="matrix(9.5,0,0,-9.5,55.076726,10.09874)"/>
<use data-text="n" xlink:href="#font_2_38" transform="matrix(9.5,0,0,-9.5,61.094354,10.09874)"/>
<use data-text="o" xlink:href="#font_2_39" transform="matrix(9.5,0,0,-9.5,67.111988,10.09874)"/>
<use data-text="t" xlink:href="#font_2_43" transform="matrix(9.5,0,0,-9.5,72.92622,10.09874)"/>
<use data-text="a" xlink:href="#font_2_26" transform="matrix(9.5,0,0,-9.5,76.64412,10.09874)"/>
<use data-text="t" xlink:href="#font_2_43" transform="matrix(9.5,0,0,-9.5,82.47421,10.09874)"/>
<use data-text="i" xlink:href="#font_2_34" transform="matrix(9.5,0,0,-9.5,86.19211,10.09874)"/>
<use data-text="o" xlink:href="#font_2_39" transform="matrix(9.5,0,0,-9.5,88.834339,10.09874)"/>
<use data-text="n" xlink:href="#font_2_38" transform="matrix(9.5,0,0,-9.5,94.648578,10.09874)"/>
<use data-text=" " xlink:href="#font_2_3" transform="matrix(9.5,0,0,-9.5,100.6662,10.09874)"/>
<use data-text="p" xlink:href="#font_2_40" transform="matrix(9.5,0,0,-9.5,103.68306,10.09874)"/>
<use data-text="r" xlink:href="#font_2_41" transform="matrix(9.5,0,0,-9.5,109.71654,10.09874)"/>
<use data-text="e" xlink:href="#font_2_30" transform="matrix(9.5,0,0,-9.5,113.418399,10.09874)"/>
<use data-text="s" xlink:href="#font_2_42" transform="matrix(9.5,0,0,-9.5,119.25992,10.09874)"/>
<use data-text="e" xlink:href="#font_2_30" transform="matrix(9.5,0,0,-9.5,124.21309,10.09874)"/>
<use data-text="r" xlink:href="#font_2_41" transform="matrix(9.5,0,0,-9.5,130.05461,10.09874)"/>
<use data-text="v" xlink:href="#font_2_44" transform="matrix(9.5,0,0,-9.5,133.9596,10.09874)"/>
<use data-text="a" xlink:href="#font_2_26" transform="matrix(9.5,0,0,-9.5,139.58654,10.09874)"/>
<use data-text="t" xlink:href="#font_2_43" transform="matrix(9.5,0,0,-9.5,145.41663,10.09874)"/>
<use data-text="i" xlink:href="#font_2_34" transform="matrix(9.5,0,0,-9.5,149.13452,10.09874)"/>
<use data-text="o" xlink:href="#font_2_39" transform="matrix(9.5,0,0,-9.5,151.77674,10.09874)"/>
<use data-text="n" xlink:href="#font_2_38" transform="matrix(9.5,0,0,-9.5,157.59099,10.09874)"/>
<path transform="matrix(1,0,0,-1,0,169.2)" d="M210.90407 30.885859H335.58305V153.10126H210.90407Z" fill="#ffffff"/>
<g clip-path="url(#clip_15)">
<path transform="matrix(1,0,0,-1,0,169.2)" d="M261.5043 30.885859H268.79075V153.10126H261.5043Z" fill="#dceaf8"/>
<path transform="matrix(1,0,0,-1,0,169.2)" stroke-width="1" stroke-linecap="butt" stroke-miterlimit="10" stroke-linejoin="miter" fill="none" stroke="#dceaf8" d="M261.5043 30.885859H268.79075V153.10126H261.5043Z"/>
</g>
<path transform="matrix(1,0,0,-1,0,169.2)" d="M216.57129 30.885859V27.385859"/>
<path transform="matrix(1,0,0,-1,0,169.2)" stroke-width=".8" stroke-linecap="butt" stroke-linejoin="round" fill="none" stroke="#000000" d="M216.57129 30.885859V27.385859"/>
<use data-text="4" xlink:href="#font_2_12" transform="matrix(8,0,0,-8,214.02442,151.39226)"/>
<path transform="matrix(1,0,0,-1,0,169.2)" d="M232.76337 30.885859V27.385859"/>
<path transform="matrix(1,0,0,-1,0,169.2)" stroke-width=".8" stroke-linecap="butt" stroke-linejoin="round" fill="none" stroke="#000000" d="M232.76337 30.885859V27.385859"/>
<use data-text="8" xlink:href="#font_2_15" transform="matrix(8,0,0,-8,230.21649,151.39226)"/>
<path transform="matrix(1,0,0,-1,0,169.2)" d="M248.95545 30.885859V27.385859"/>
<path transform="matrix(1,0,0,-1,0,169.2)" stroke-width=".8" stroke-linecap="butt" stroke-linejoin="round" fill="none" stroke="#000000" d="M248.95545 30.885859V27.385859"/>
<use data-text="1" xlink:href="#font_2_9" transform="matrix(8,0,0,-8,243.8617,151.39226)"/>
<use data-text="2" xlink:href="#font_2_10" transform="matrix(8,0,0,-8,248.9536,151.39226)"/>
<path transform="matrix(1,0,0,-1,0,169.2)" d="M265.14753 30.885859V27.385859"/>
<path transform="matrix(1,0,0,-1,0,169.2)" stroke-width=".8" stroke-linecap="butt" stroke-linejoin="round" fill="none" stroke="#000000" d="M265.14753 30.885859V27.385859"/>
<use data-text="1" xlink:href="#font_2_9" transform="matrix(8,0,0,-8,260.05378,151.39226)"/>
<use data-text="6" xlink:href="#font_2_14" transform="matrix(8,0,0,-8,265.1457,151.39226)"/>
<path transform="matrix(1,0,0,-1,0,169.2)" d="M297.53169 30.885859V27.385859"/>
<path transform="matrix(1,0,0,-1,0,169.2)" stroke-width=".8" stroke-linecap="butt" stroke-linejoin="round" fill="none" stroke="#000000" d="M297.53169 30.885859V27.385859"/>
<use data-text="2" xlink:href="#font_2_10" transform="matrix(8,0,0,-8,292.43794,151.39226)"/>
<use data-text="4" xlink:href="#font_2_12" transform="matrix(8,0,0,-8,297.52986,151.39226)"/>
<path transform="matrix(1,0,0,-1,0,169.2)" d="M329.9158 30.885859V27.385859"/>
<path transform="matrix(1,0,0,-1,0,169.2)" stroke-width=".8" stroke-linecap="butt" stroke-linejoin="round" fill="none" stroke="#000000" d="M329.9158 30.885859V27.385859"/>
<use data-text="3" xlink:href="#font_2_11" transform="matrix(8,0,0,-8,324.82206,151.39226)"/>
<use data-text="2" xlink:href="#font_2_10" transform="matrix(8,0,0,-8,329.91398,151.39226)"/>
<use data-text="G" xlink:href="#font_2_18" transform="matrix(9,0,0,-9,248.85294,164.15789)"/>
<use data-text="r" xlink:href="#font_2_41" transform="matrix(9,0,0,-9,255.82257,164.15789)"/>
<use data-text="i" xlink:href="#font_2_34" transform="matrix(9,0,0,-9,259.5245,164.15789)"/>
<use data-text="d" xlink:href="#font_2_29" transform="matrix(9,0,0,-9,262.026,164.15789)"/>
<use data-text=" " xlink:href="#font_2_3" transform="matrix(9,0,0,-9,267.74687,164.15789)"/>
<use data-text="s" xlink:href="#font_2_42" transform="matrix(9,0,0,-9,270.6074,164.15789)"/>
<use data-text="i" xlink:href="#font_2_34" transform="matrix(9,0,0,-9,275.29493,164.15789)"/>
<use data-text="z" xlink:href="#font_2_46" transform="matrix(9,0,0,-9,277.79646,164.15789)"/>
<use data-text="e" xlink:href="#font_2_30" transform="matrix(9,0,0,-9,282.51609,164.15789)"/>
<use data-text=" " xlink:href="#font_2_3" transform="matrix(9,0,0,-9,288.04524,164.15789)"/>
<use data-text="N" xlink:href="#font_2_21" transform="matrix(9,0,0,-9,290.90577,164.15789)"/>
<g clip-path="url(#clip_16)">
<path transform="matrix(1,0,0,-1,0,169.2)" stroke-width=".6" stroke-linecap="square" stroke-linejoin="round" fill="none" stroke="#e5e7eb" d="M210.90407 30.885859H335.58305"/>
</g>
<path transform="matrix(1,0,0,-1,0,169.2)" d="M210.90407 30.885859H207.40407"/>
<path transform="matrix(1,0,0,-1,0,169.2)" stroke-width=".8" stroke-linecap="butt" stroke-linejoin="round" fill="none" stroke="#000000" d="M210.90407 30.885859H207.40407"/>
<use data-text="0" xlink:href="#font_2_8" transform="matrix(8,0,0,-8,198.81032,141.3532)"/>
<g clip-path="url(#clip_17)">
<path transform="matrix(1,0,0,-1,0,169.2)" stroke-width=".6" stroke-linecap="square" stroke-linejoin="round" fill="none" stroke="#e5e7eb" d="M210.90407 59.98476H335.58305"/>
</g>
<path transform="matrix(1,0,0,-1,0,169.2)" d="M210.90407 59.98476H207.40407"/>
<path transform="matrix(1,0,0,-1,0,169.2)" stroke-width=".8" stroke-linecap="butt" stroke-linejoin="round" fill="none" stroke="#000000" d="M210.90407 59.98476H207.40407"/>
<use data-text="5" xlink:href="#font_2_13" transform="matrix(8,0,0,-8,188.62282,112.2543)"/>
<use data-text="0" xlink:href="#font_2_8" transform="matrix(8,0,0,-8,193.71472,112.2543)"/>
<use data-text="0" xlink:href="#font_2_8" transform="matrix(8,0,0,-8,198.80663,112.2543)"/>
<g clip-path="url(#clip_18)">
<path transform="matrix(1,0,0,-1,0,169.2)" stroke-width=".6" stroke-linecap="square" stroke-linejoin="round" fill="none" stroke="#e5e7eb" d="M210.90407 89.083667H335.58305"/>
</g>
<path transform="matrix(1,0,0,-1,0,169.2)" d="M210.90407 89.083667H207.40407"/>
<path transform="matrix(1,0,0,-1,0,169.2)" stroke-width=".8" stroke-linecap="butt" stroke-linejoin="round" fill="none" stroke="#000000" d="M210.90407 89.083667H207.40407"/>
<use data-text="1" xlink:href="#font_2_9" transform="matrix(8,0,0,-8,183.52907,83.155399)"/>
<use data-text="0" xlink:href="#font_2_8" transform="matrix(8,0,0,-8,188.62097,83.155399)"/>
<use data-text="0" xlink:href="#font_2_8" transform="matrix(8,0,0,-8,193.71288,83.155399)"/>
<use data-text="0" xlink:href="#font_2_8" transform="matrix(8,0,0,-8,198.8048,83.155399)"/>
<g clip-path="url(#clip_19)">
<path transform="matrix(1,0,0,-1,0,169.2)" stroke-width=".6" stroke-linecap="square" stroke-linejoin="round" fill="none" stroke="#e5e7eb" d="M210.90407 118.18256H335.58305"/>
</g>
<path transform="matrix(1,0,0,-1,0,169.2)" d="M210.90407 118.18256H207.40407"/>
<path transform="matrix(1,0,0,-1,0,169.2)" stroke-width=".8" stroke-linecap="butt" stroke-linejoin="round" fill="none" stroke="#000000" d="M210.90407 118.18256H207.40407"/>
<use data-text="1" xlink:href="#font_2_9" transform="matrix(8,0,0,-8,183.52907,54.056497)"/>
<use data-text="5" xlink:href="#font_2_13" transform="matrix(8,0,0,-8,188.62097,54.056497)"/>
<use data-text="0" xlink:href="#font_2_8" transform="matrix(8,0,0,-8,193.71288,54.056497)"/>
<use data-text="0" xlink:href="#font_2_8" transform="matrix(8,0,0,-8,198.8048,54.056497)"/>
<g clip-path="url(#clip_20)">
<path transform="matrix(1,0,0,-1,0,169.2)" stroke-width=".6" stroke-linecap="square" stroke-linejoin="round" fill="none" stroke="#e5e7eb" d="M210.90407 147.28147H335.58305"/>
</g>
<path transform="matrix(1,0,0,-1,0,169.2)" d="M210.90407 147.28147H207.40407"/>
<path transform="matrix(1,0,0,-1,0,169.2)" stroke-width=".8" stroke-linecap="butt" stroke-linejoin="round" fill="none" stroke="#000000" d="M210.90407 147.28147H207.40407"/>
<use data-text="2" xlink:href="#font_2_10" transform="matrix(8,0,0,-8,183.52907,24.957596)"/>
<use data-text="0" xlink:href="#font_2_8" transform="matrix(8,0,0,-8,188.62097,24.957596)"/>
<use data-text="0" xlink:href="#font_2_8" transform="matrix(8,0,0,-8,193.71288,24.957596)"/>
<use data-text="0" xlink:href="#font_2_8" transform="matrix(8,0,0,-8,198.8048,24.957596)"/>
<use data-text="T" xlink:href="#font_2_24" transform="matrix(0,-9,-9,-0,177.36696,107.48769)"/>
<use data-text="a" xlink:href="#font_2_26" transform="matrix(0,-9,-9,-0,177.36696,103.47063)"/>
<use data-text="r" xlink:href="#font_2_41" transform="matrix(0,-9,-9,-0,177.36696,97.95314)"/>
<use data-text="g" xlink:href="#font_2_32" transform="matrix(0,-9,-9,-0,177.36696,94.407459)"/>
<use data-text="e" xlink:href="#font_2_30" transform="matrix(0,-9,-9,-0,177.36696,88.6866)"/>
<use data-text="t" xlink:href="#font_2_43" transform="matrix(0,-9,-9,-0,177.36696,83.157459)"/>
<use data-text=" " xlink:href="#font_2_3" transform="matrix(0,-9,-9,-0,177.36696,79.627017)"/>
<use data-text="t" xlink:href="#font_2_43" transform="matrix(0,-9,-9,-0,177.36696,76.76648)"/>
<use data-text="o" xlink:href="#font_2_39" transform="matrix(0,-9,-9,-0,177.36696,73.23604)"/>
<use data-text="k" xlink:href="#font_2_35" transform="matrix(0,-9,-9,-0,177.36696,67.73439)"/>
<use data-text="e" xlink:href="#font_2_30" transform="matrix(0,-9,-9,-0,177.36696,62.844675)"/>
<use data-text="n" xlink:href="#font_2_38" transform="matrix(0,-9,-9,-0,177.36696,57.315534)"/>
<use data-text="s" xlink:href="#font_2_42" transform="matrix(0,-9,-9,-0,177.36696,51.610509)"/>
<g clip-path="url(#clip_21)">
<path transform="matrix(1,0,0,-1,0,169.2)" stroke-width="1.3" stroke-linecap="square" stroke-linejoin="round" fill="none" stroke="#2563a6" d="M216.57129 31.293244 232.76337 32.4572 248.95545 34.726915 265.14753 37.869596 297.53169 46.77386 329.9158 59.169996"/>
<g clip-path="url(#clip_22)">
<path transform="matrix(1,0,0,-1,216.57129,137.90676)" d="M0-1.75C.464105-1.75 .909265-1.565609 1.237437-1.237437 1.565609-.909265 1.75-.464105 1.75 0 1.75 .464105 1.565609 .909265 1.237437 1.237437 .909265 1.565609 .464105 1.75 0 1.75-.464105 1.75-.909265 1.565609-1.237437 1.237437-1.565609 .909265-1.75 .464105-1.75 0-1.75-.464105-1.565609-.909265-1.237437-1.237437-.909265-1.565609-.464105-1.75 0-1.75Z" fill="#2563a6"/>
<path transform="matrix(1,0,0,-1,216.57129,137.90676)" stroke-width="1" stroke-linecap="butt" stroke-linejoin="round" fill="none" stroke="#2563a6" d="M0-1.75C.464105-1.75 .909265-1.565609 1.237437-1.237437 1.565609-.909265 1.75-.464105 1.75 0 1.75 .464105 1.565609 .909265 1.237437 1.237437 .909265 1.565609 .464105 1.75 0 1.75-.464105 1.75-.909265 1.565609-1.237437 1.237437-1.565609 .909265-1.75 .464105-1.75 0-1.75-.464105-1.565609-.909265-1.237437-1.237437-.909265-1.565609-.464105-1.75 0-1.75Z"/>
</g>
<g clip-path="url(#clip_23)">
<path transform="matrix(1,0,0,-1,232.76337,136.7428)" d="M0-1.75C.464105-1.75 .909265-1.565609 1.237437-1.237437 1.565609-.909265 1.75-.464105 1.75 0 1.75 .464105 1.565609 .909265 1.237437 1.237437 .909265 1.565609 .464105 1.75 0 1.75-.464105 1.75-.909265 1.565609-1.237437 1.237437-1.565609 .909265-1.75 .464105-1.75 0-1.75-.464105-1.565609-.909265-1.237437-1.237437-.909265-1.565609-.464105-1.75 0-1.75Z" fill="#2563a6"/>
<path transform="matrix(1,0,0,-1,232.76337,136.7428)" stroke-width="1" stroke-linecap="butt" stroke-linejoin="round" fill="none" stroke="#2563a6" d="M0-1.75C.464105-1.75 .909265-1.565609 1.237437-1.237437 1.565609-.909265 1.75-.464105 1.75 0 1.75 .464105 1.565609 .909265 1.237437 1.237437 .909265 1.565609 .464105 1.75 0 1.75-.464105 1.75-.909265 1.565609-1.237437 1.237437-1.565609 .909265-1.75 .464105-1.75 0-1.75-.464105-1.565609-.909265-1.237437-1.237437-.909265-1.565609-.464105-1.75 0-1.75Z"/>
</g>
<g clip-path="url(#clip_24)">
<path transform="matrix(1,0,0,-1,248.95545,134.47309)" d="M0-1.75C.464105-1.75 .909265-1.565609 1.237437-1.237437 1.565609-.909265 1.75-.464105 1.75 0 1.75 .464105 1.565609 .909265 1.237437 1.237437 .909265 1.565609 .464105 1.75 0 1.75-.464105 1.75-.909265 1.565609-1.237437 1.237437-1.565609 .909265-1.75 .464105-1.75 0-1.75-.464105-1.565609-.909265-1.237437-1.237437-.909265-1.565609-.464105-1.75 0-1.75Z" fill="#2563a6"/>
<path transform="matrix(1,0,0,-1,248.95545,134.47309)" stroke-width="1" stroke-linecap="butt" stroke-linejoin="round" fill="none" stroke="#2563a6" d="M0-1.75C.464105-1.75 .909265-1.565609 1.237437-1.237437 1.565609-.909265 1.75-.464105 1.75 0 1.75 .464105 1.565609 .909265 1.237437 1.237437 .909265 1.565609 .464105 1.75 0 1.75-.464105 1.75-.909265 1.565609-1.237437 1.237437-1.565609 .909265-1.75 .464105-1.75 0-1.75-.464105-1.565609-.909265-1.237437-1.237437-.909265-1.565609-.464105-1.75 0-1.75Z"/>
</g>
<g clip-path="url(#clip_25)">
<path transform="matrix(1,0,0,-1,265.14753,131.3304)" d="M0-1.75C.464105-1.75 .909265-1.565609 1.237437-1.237437 1.565609-.909265 1.75-.464105 1.75 0 1.75 .464105 1.565609 .909265 1.237437 1.237437 .909265 1.565609 .464105 1.75 0 1.75-.464105 1.75-.909265 1.565609-1.237437 1.237437-1.565609 .909265-1.75 .464105-1.75 0-1.75-.464105-1.565609-.909265-1.237437-1.237437-.909265-1.565609-.464105-1.75 0-1.75Z" fill="#2563a6"/>
<path transform="matrix(1,0,0,-1,265.14753,131.3304)" stroke-width="1" stroke-linecap="butt" stroke-linejoin="round" fill="none" stroke="#2563a6" d="M0-1.75C.464105-1.75 .909265-1.565609 1.237437-1.237437 1.565609-.909265 1.75-.464105 1.75 0 1.75 .464105 1.565609 .909265 1.237437 1.237437 .909265 1.565609 .464105 1.75 0 1.75-.464105 1.75-.909265 1.565609-1.237437 1.237437-1.565609 .909265-1.75 .464105-1.75 0-1.75-.464105-1.565609-.909265-1.237437-1.237437-.909265-1.565609-.464105-1.75 0-1.75Z"/>
</g>
<g clip-path="url(#clip_26)">
<path transform="matrix(1,0,0,-1,297.53169,122.42613)" d="M0-1.75C.464105-1.75 .909265-1.565609 1.237437-1.237437 1.565609-.909265 1.75-.464105 1.75 0 1.75 .464105 1.565609 .909265 1.237437 1.237437 .909265 1.565609 .464105 1.75 0 1.75-.464105 1.75-.909265 1.565609-1.237437 1.237437-1.565609 .909265-1.75 .464105-1.75 0-1.75-.464105-1.565609-.909265-1.237437-1.237437-.909265-1.565609-.464105-1.75 0-1.75Z" fill="#2563a6"/>
<path transform="matrix(1,0,0,-1,297.53169,122.42613)" stroke-width="1" stroke-linecap="butt" stroke-linejoin="round" fill="none" stroke="#2563a6" d="M0-1.75C.464105-1.75 .909265-1.565609 1.237437-1.237437 1.565609-.909265 1.75-.464105 1.75 0 1.75 .464105 1.565609 .909265 1.237437 1.237437 .909265 1.565609 .464105 1.75 0 1.75-.464105 1.75-.909265 1.565609-1.237437 1.237437-1.565609 .909265-1.75 .464105-1.75 0-1.75-.464105-1.565609-.909265-1.237437-1.237437-.909265-1.565609-.464105-1.75 0-1.75Z"/>
</g>
<g clip-path="url(#clip_27)">
<path transform="matrix(1,0,0,-1,329.91584,110.03)" d="M0-1.75C.464105-1.75 .909265-1.565609 1.237437-1.237437 1.565609-.909265 1.75-.464105 1.75 0 1.75 .464105 1.565609 .909265 1.237437 1.237437 .909265 1.565609 .464105 1.75 0 1.75-.464105 1.75-.909265 1.565609-1.237437 1.237437-1.565609 .909265-1.75 .464105-1.75 0-1.75-.464105-1.565609-.909265-1.237437-1.237437-.909265-1.565609-.464105-1.75 0-1.75Z" fill="#2563a6"/>
<path transform="matrix(1,0,0,-1,329.91584,110.03)" stroke-width="1" stroke-linecap="butt" stroke-linejoin="round" fill="none" stroke="#2563a6" d="M0-1.75C.464105-1.75 .909265-1.565609 1.237437-1.237437 1.565609-.909265 1.75-.464105 1.75 0 1.75 .464105 1.565609 .909265 1.237437 1.237437 .909265 1.565609 .464105 1.75 0 1.75-.464105 1.75-.909265 1.565609-1.237437 1.237437-1.565609 .909265-1.75 .464105-1.75 0-1.75-.464105-1.565609-.909265-1.237437-1.237437-.909265-1.565609-.464105-1.75 0-1.75Z"/>
</g>
</g>
<g clip-path="url(#clip_28)">
<path transform="matrix(1,0,0,-1,0,169.2)" stroke-width="1.3" stroke-linecap="butt" stroke-dasharray="4.81,2.08" stroke-linejoin="round" fill="none" stroke="#b96819" d="M216.57129 32.922784 232.76337 37.636808 248.95545 45.43531 265.14753 58.297029 297.53169 94.26327 329.9158 142.97484"/>
<g clip-path="url(#clip_29)">
<path transform="matrix(1,0,0,-1,216.57129,136.27722)" d="M-1.75-1.75H1.75V1.75H-1.75Z" fill="#b96819"/>
<path transform="matrix(1,0,0,-1,216.57129,136.27722)" stroke-width="1" stroke-linecap="butt" stroke-miterlimit="10" stroke-linejoin="miter" fill="none" stroke="#b96819" d="M-1.75-1.75H1.75V1.75H-1.75Z"/>
</g>
<g clip-path="url(#clip_30)">
<path transform="matrix(1,0,0,-1,232.76337,131.5632)" d="M-1.75-1.75H1.75V1.75H-1.75Z" fill="#b96819"/>
<path transform="matrix(1,0,0,-1,232.76337,131.5632)" stroke-width="1" stroke-linecap="butt" stroke-miterlimit="10" stroke-linejoin="miter" fill="none" stroke="#b96819" d="M-1.75-1.75H1.75V1.75H-1.75Z"/>
</g>
<g clip-path="url(#clip_31)">
<path transform="matrix(1,0,0,-1,248.95545,123.764698)" d="M-1.75-1.75H1.75V1.75H-1.75Z" fill="#b96819"/>
<path transform="matrix(1,0,0,-1,248.95545,123.764698)" stroke-width="1" stroke-linecap="butt" stroke-miterlimit="10" stroke-linejoin="miter" fill="none" stroke="#b96819" d="M-1.75-1.75H1.75V1.75H-1.75Z"/>
</g>
<g clip-path="url(#clip_32)">
<path transform="matrix(1,0,0,-1,265.14753,110.90298)" d="M-1.75-1.75H1.75V1.75H-1.75Z" fill="#b96819"/>
<path transform="matrix(1,0,0,-1,265.14753,110.90298)" stroke-width="1" stroke-linecap="butt" stroke-miterlimit="10" stroke-linejoin="miter" fill="none" stroke="#b96819" d="M-1.75-1.75H1.75V1.75H-1.75Z"/>
</g>
<g clip-path="url(#clip_33)">
<path transform="matrix(1,0,0,-1,297.53169,74.93674)" d="M-1.75-1.75H1.75V1.75H-1.75Z" fill="#b96819"/>
<path transform="matrix(1,0,0,-1,297.53169,74.93674)" stroke-width="1" stroke-linecap="butt" stroke-miterlimit="10" stroke-linejoin="miter" fill="none" stroke="#b96819" d="M-1.75-1.75H1.75V1.75H-1.75Z"/>
</g>
<g clip-path="url(#clip_34)">
<path transform="matrix(1,0,0,-1,329.91584,26.225174)" d="M-1.75-1.75H1.75V1.75H-1.75Z" fill="#b96819"/>
<path transform="matrix(1,0,0,-1,329.91584,26.225174)" stroke-width="1" stroke-linecap="butt" stroke-miterlimit="10" stroke-linejoin="miter" fill="none" stroke="#b96819" d="M-1.75-1.75H1.75V1.75H-1.75Z"/>
</g>
</g>
<path transform="matrix(1,0,0,-1,0,169.2)" stroke-width=".6" stroke-linecap="square" stroke-miterlimit="10" stroke-linejoin="miter" fill="none" stroke="#7b8289" d="M210.90407 30.885859V153.10126"/>
<path transform="matrix(1,0,0,-1,0,169.2)" stroke-width=".6" stroke-linecap="square" stroke-miterlimit="10" stroke-linejoin="miter" fill="none" stroke="#7b8289" d="M210.90407 30.885859H335.58305"/>
<use data-text="(" xlink:href="#font_2_4" transform="matrix(9.5,0,0,-9.5,224.392,10.09874)"/>
<use data-text="b" xlink:href="#font_2_27" transform="matrix(9.5,0,0,-9.5,228.09383,10.09874)"/>
<use data-text=")" xlink:href="#font_2_5" transform="matrix(9.5,0,0,-9.5,234.1273,10.09874)"/>
<use data-text=" " xlink:href="#font_2_3" transform="matrix(9.5,0,0,-9.5,237.82913,10.09874)"/>
<use data-text="S" xlink:href="#font_2_23" transform="matrix(9.5,0,0,-9.5,240.84598,10.09874)"/>
<use data-text="e" xlink:href="#font_2_30" transform="matrix(9.5,0,0,-9.5,246.87946,10.09874)"/>
<use data-text="r" xlink:href="#font_2_41" transform="matrix(9.5,0,0,-9.5,252.72098,10.09874)"/>
<use data-text="i" xlink:href="#font_2_34" transform="matrix(9.5,0,0,-9.5,256.62599,10.09874)"/>
<use data-text="a" xlink:href="#font_2_26" transform="matrix(9.5,0,0,-9.5,259.2682,10.09874)"/>
<use data-text="l" xlink:href="#font_2_36" transform="matrix(9.5,0,0,-9.5,265.09828,10.09874)"/>
<use data-text="i" xlink:href="#font_2_34" transform="matrix(9.5,0,0,-9.5,267.7405,10.09874)"/>
<use data-text="z" xlink:href="#font_2_46" transform="matrix(9.5,0,0,-9.5,270.38273,10.09874)"/>
<use data-text="a" xlink:href="#font_2_26" transform="matrix(9.5,0,0,-9.5,275.368,10.09874)"/>
<use data-text="t" xlink:href="#font_2_43" transform="matrix(9.5,0,0,-9.5,281.19813,10.09874)"/>
<use data-text="i" xlink:href="#font_2_34" transform="matrix(9.5,0,0,-9.5,284.91603,10.09874)"/>
<use data-text="o" xlink:href="#font_2_39" transform="matrix(9.5,0,0,-9.5,287.55824,10.09874)"/>
<use data-text="n" xlink:href="#font_2_38" transform="matrix(9.5,0,0,-9.5,293.37248,10.09874)"/>
<use data-text=" " xlink:href="#font_2_3" transform="matrix(9.5,0,0,-9.5,299.3901,10.09874)"/>
<use data-text="c" xlink:href="#font_2_28" transform="matrix(9.5,0,0,-9.5,302.40696,10.09874)"/>
<use data-text="o" xlink:href="#font_2_39" transform="matrix(9.5,0,0,-9.5,307.62757,10.09874)"/>
<use data-text="s" xlink:href="#font_2_42" transform="matrix(9.5,0,0,-9.5,313.4418,10.09874)"/>
<use data-text="t" xlink:href="#font_2_43" transform="matrix(9.5,0,0,-9.5,318.39497,10.09874)"/>
<path transform="matrix(1,0,0,-1,0,169.2)" stroke-width="1.3" stroke-linecap="square" stroke-linejoin="round" fill="none" stroke="#2563a6" d="M217.92407 142.88507H225.72408 233.52407"/>
<path transform="matrix(1,0,0,-1,0,169.2)" d="M225.72408 141.13507C226.18817 141.13507 226.63333 141.31948 226.9615 141.64765 227.28968 141.97582 227.47408 142.42098 227.47408 142.88507 227.47408 143.34918 227.28968 143.79434 226.9615 144.12252 226.63333 144.45069 226.18817 144.63507 225.72408 144.63507 225.25997 144.63507 224.8148 144.45069 224.48664 144.12252 224.15847 143.79434 223.97408 143.34918 223.97408 142.88507 223.97408 142.42098 224.15847 141.97582 224.48664 141.64765 224.8148 141.31948 225.25997 141.13507 225.72408 141.13507Z" fill="#2563a6"/>
<path transform="matrix(1,0,0,-1,0,169.2)" stroke-width="1" stroke-linecap="butt" stroke-linejoin="round" fill="none" stroke="#2563a6" d="M225.72408 141.13507C226.18817 141.13507 226.63333 141.31948 226.9615 141.64765 227.28968 141.97582 227.47408 142.42098 227.47408 142.88507 227.47408 143.34918 227.28968 143.79434 226.9615 144.12252 226.63333 144.45069 226.18817 144.63507 225.72408 144.63507 225.25997 144.63507 224.8148 144.45069 224.48664 144.12252 224.15847 143.79434 223.97408 143.34918 223.97408 142.88507 223.97408 142.42098 224.15847 141.97582 224.48664 141.64765 224.8148 141.31948 225.25997 141.13507 225.72408 141.13507Z"/>
<use data-text="M" xlink:href="#font_2_20" transform="matrix(7.8,0,0,-7.8,239.76407,29.044922)"/>
<use data-text="e" xlink:href="#font_2_30" transform="matrix(7.8,0,0,-7.8,246.50275,29.044922)"/>
<use data-text="a" xlink:href="#font_2_26" transform="matrix(7.8,0,0,-7.8,251.29972,29.044922)"/>
<use data-text="n" xlink:href="#font_2_38" transform="matrix(7.8,0,0,-7.8,256.0845,29.044922)"/>
<path transform="matrix(1,0,0,-1,0,169.2)" stroke-width="1.3" stroke-linecap="butt" stroke-dasharray="4.81,2.08" stroke-linejoin="round" fill="none" stroke="#b96819" d="M217.92407 131.18508H225.72408 233.52407"/>
<path transform="matrix(1,0,0,-1,0,169.2)" d="M223.97408 129.43508H227.47408V132.93508H223.97408Z" fill="#b96819"/>
<path transform="matrix(1,0,0,-1,0,169.2)" stroke-width="1" stroke-linecap="butt" stroke-miterlimit="10" stroke-linejoin="miter" fill="none" stroke="#b96819" d="M223.97408 129.43508H227.47408V132.93508H223.97408Z"/>
<use data-text="9" xlink:href="#font_2_16" transform="matrix(7.8,0,0,-7.8,239.76407,40.74492)"/>
<use data-text="5" xlink:href="#font_2_13" transform="matrix(7.8,0,0,-7.8,244.71738,40.74492)"/>
<use data-text="t" xlink:href="#font_2_43" transform="matrix(7.8,0,0,-7.8,249.67069,40.74492)"/>
<use data-text="h" xlink:href="#font_2_33" transform="matrix(7.8,0,0,-7.8,252.7337,40.74492)"/>
<use data-text=" " xlink:href="#font_2_3" transform="matrix(7.8,0,0,-7.8,257.67485,40.74492)"/>
<use data-text="p" xlink:href="#font_2_40" transform="matrix(7.8,0,0,-7.8,260.1612,40.74492)"/>
<use data-text="e" xlink:href="#font_2_30" transform="matrix(7.8,0,0,-7.8,265.11814,40.74492)"/>
<use data-text="r" xlink:href="#font_2_41" transform="matrix(7.8,0,0,-7.8,269.9151,40.74492)"/>
<use data-text="c" xlink:href="#font_2_28" transform="matrix(7.8,0,0,-7.8,272.9466,40.74492)"/>
<use data-text="e" xlink:href="#font_2_30" transform="matrix(7.8,0,0,-7.8,277.23109,40.74492)"/>
<use data-text="n" xlink:href="#font_2_38" transform="matrix(7.8,0,0,-7.8,282.02809,40.74492)"/>
<use data-text="t" xlink:href="#font_2_43" transform="matrix(7.8,0,0,-7.8,286.96919,40.74492)"/>
<use data-text="i" xlink:href="#font_2_34" transform="matrix(7.8,0,0,-7.8,290.03224,40.74492)"/>
<use data-text="l" xlink:href="#font_2_36" transform="matrix(7.8,0,0,-7.8,292.20628,40.74492)"/>
<use data-text="e" xlink:href="#font_2_30" transform="matrix(7.8,0,0,-7.8,294.3803,40.74492)"/>
<path transform="matrix(1,0,0,-1,0,169.2)" d="M383.64103 30.885859H508.32V153.10126H383.64103Z" fill="#ffffff"/>
<g clip-path="url(#clip_35)">
<path transform="matrix(1,0,0,-1,0,169.2)" d="M431.0361 30.885859H438.7218V153.10126H431.0361Z" fill="#dceaf8"/>
<path transform="matrix(1,0,0,-1,0,169.2)" stroke-width="1" stroke-linecap="butt" stroke-miterlimit="10" stroke-linejoin="miter" fill="none" stroke="#dceaf8" d="M431.0361 30.885859H438.7218V153.10126H431.0361Z"/>
</g>
<path transform="matrix(1,0,0,-1,0,169.2)" d="M383.64103 30.885859V27.385859"/>
<path transform="matrix(1,0,0,-1,0,169.2)" stroke-width=".8" stroke-linecap="butt" stroke-linejoin="round" fill="none" stroke="#000000" d="M383.64103 30.885859V27.385859"/>
<use data-text="4" xlink:href="#font_2_12" transform="matrix(8,0,0,-8,381.09416,151.39226)"/>
<path transform="matrix(1,0,0,-1,0,169.2)" d="M400.72035 30.885859V27.385859"/>
<path transform="matrix(1,0,0,-1,0,169.2)" stroke-width=".8" stroke-linecap="butt" stroke-linejoin="round" fill="none" stroke="#000000" d="M400.72035 30.885859V27.385859"/>
<use data-text="8" xlink:href="#font_2_15" transform="matrix(8,0,0,-8,398.17347,151.39226)"/>
<path transform="matrix(1,0,0,-1,0,169.2)" d="M417.79966 30.885859V27.385859"/>
<path transform="matrix(1,0,0,-1,0,169.2)" stroke-width=".8" stroke-linecap="butt" stroke-linejoin="round" fill="none" stroke="#000000" d="M417.79966 30.885859V27.385859"/>
<use data-text="1" xlink:href="#font_2_9" transform="matrix(8,0,0,-8,412.7059,151.39226)"/>
<use data-text="2" xlink:href="#font_2_10" transform="matrix(8,0,0,-8,417.79783,151.39226)"/>
<path transform="matrix(1,0,0,-1,0,169.2)" d="M434.87898 30.885859V27.385859"/>
<path transform="matrix(1,0,0,-1,0,169.2)" stroke-width=".8" stroke-linecap="butt" stroke-linejoin="round" fill="none" stroke="#000000" d="M434.87898 30.885859V27.385859"/>
<use data-text="1" xlink:href="#font_2_9" transform="matrix(8,0,0,-8,429.78523,151.39226)"/>
<use data-text="6" xlink:href="#font_2_14" transform="matrix(8,0,0,-8,434.87715,151.39226)"/>
<path transform="matrix(1,0,0,-1,0,169.2)" d="M469.0376 30.885859V27.385859"/>
<path transform="matrix(1,0,0,-1,0,169.2)" stroke-width=".8" stroke-linecap="butt" stroke-linejoin="round" fill="none" stroke="#000000" d="M469.0376 30.885859V27.385859"/>
<use data-text="2" xlink:href="#font_2_10" transform="matrix(8,0,0,-8,463.94386,151.39226)"/>
<use data-text="4" xlink:href="#font_2_12" transform="matrix(8,0,0,-8,469.03578,151.39226)"/>
<path transform="matrix(1,0,0,-1,0,169.2)" d="M503.1962 30.885859V27.385859"/>
<path transform="matrix(1,0,0,-1,0,169.2)" stroke-width=".8" stroke-linecap="butt" stroke-linejoin="round" fill="none" stroke="#000000" d="M503.1962 30.885859V27.385859"/>
<use data-text="3" xlink:href="#font_2_11" transform="matrix(8,0,0,-8,498.10246,151.39226)"/>
<use data-text="2" xlink:href="#font_2_10" transform="matrix(8,0,0,-8,503.19438,151.39226)"/>
<use data-text="G" xlink:href="#font_2_18" transform="matrix(9,0,0,-9,421.58988,164.15789)"/>
<use data-text="r" xlink:href="#font_2_41" transform="matrix(9,0,0,-9,428.5595,164.15789)"/>
<use data-text="i" xlink:href="#font_2_34" transform="matrix(9,0,0,-9,432.26145,164.15789)"/>
<use data-text="d" xlink:href="#font_2_29" transform="matrix(9,0,0,-9,434.76295,164.15789)"/>
<use data-text=" " xlink:href="#font_2_3" transform="matrix(9,0,0,-9,440.4838,164.15789)"/>
<use data-text="s" xlink:href="#font_2_42" transform="matrix(9,0,0,-9,443.34434,164.15789)"/>
<use data-text="i" xlink:href="#font_2_34" transform="matrix(9,0,0,-9,448.03187,164.15789)"/>
<use data-text="z" xlink:href="#font_2_46" transform="matrix(9,0,0,-9,450.5334,164.15789)"/>
<use data-text="e" xlink:href="#font_2_30" transform="matrix(9,0,0,-9,455.25303,164.15789)"/>
<use data-text=" " xlink:href="#font_2_3" transform="matrix(9,0,0,-9,460.78218,164.15789)"/>
<use data-text="N" xlink:href="#font_2_21" transform="matrix(9,0,0,-9,463.6427,164.15789)"/>
<g clip-path="url(#clip_36)">
<path transform="matrix(1,0,0,-1,0,169.2)" stroke-width=".6" stroke-linecap="square" stroke-linejoin="round" fill="none" stroke="#e5e7eb" d="M383.64103 30.885859H508.32"/>
</g>
<path transform="matrix(1,0,0,-1,0,169.2)" d="M383.64103 30.885859H380.14103"/>
<path transform="matrix(1,0,0,-1,0,169.2)" stroke-width=".8" stroke-linecap="butt" stroke-linejoin="round" fill="none" stroke="#000000" d="M383.64103 30.885859H380.14103"/>
<use data-text="0" xlink:href="#font_2_8" transform="matrix(8,0,0,-8,358.8129,141.3532)"/>
<use data-text="." xlink:href="#font_2_7" transform="matrix(8,0,0,-8,363.90483,141.3532)"/>
<use data-text="1" xlink:href="#font_2_9" transform="matrix(8,0,0,-8,366.4527,141.3532)"/>
<use data-text="6" xlink:href="#font_2_14" transform="matrix(8,0,0,-8,371.54463,141.3532)"/>
<g clip-path="url(#clip_37)">
<path transform="matrix(1,0,0,-1,0,169.2)" stroke-width=".6" stroke-linecap="square" stroke-linejoin="round" fill="none" stroke="#e5e7eb" d="M383.64103 58.044836H508.32"/>
</g>
<path transform="matrix(1,0,0,-1,0,169.2)" d="M383.64103 58.044836H380.14103"/>
<path transform="matrix(1,0,0,-1,0,169.2)" stroke-width=".8" stroke-linecap="butt" stroke-linejoin="round" fill="none" stroke="#000000" d="M383.64103 58.044836H380.14103"/>
<use data-text="0" xlink:href="#font_2_8" transform="matrix(8,0,0,-8,358.8129,114.19423)"/>
<use data-text="." xlink:href="#font_2_7" transform="matrix(8,0,0,-8,363.90483,114.19423)"/>
<use data-text="1" xlink:href="#font_2_9" transform="matrix(8,0,0,-8,366.4527,114.19423)"/>
<use data-text="8" xlink:href="#font_2_15" transform="matrix(8,0,0,-8,371.54463,114.19423)"/>
<g clip-path="url(#clip_38)">
<path transform="matrix(1,0,0,-1,0,169.2)" stroke-width=".6" stroke-linecap="square" stroke-linejoin="round" fill="none" stroke="#e5e7eb" d="M383.64103 85.20381H508.32"/>
</g>
<path transform="matrix(1,0,0,-1,0,169.2)" d="M383.64103 85.20381H380.14103"/>
<path transform="matrix(1,0,0,-1,0,169.2)" stroke-width=".8" stroke-linecap="butt" stroke-linejoin="round" fill="none" stroke="#000000" d="M383.64103 85.20381H380.14103"/>
<use data-text="0" xlink:href="#font_2_8" transform="matrix(8,0,0,-8,358.8129,87.03525)"/>
<use data-text="." xlink:href="#font_2_7" transform="matrix(8,0,0,-8,363.90483,87.03525)"/>
<use data-text="2" xlink:href="#font_2_10" transform="matrix(8,0,0,-8,366.4527,87.03525)"/>
<use data-text="0" xlink:href="#font_2_8" transform="matrix(8,0,0,-8,371.54463,87.03525)"/>
<g clip-path="url(#clip_39)">
<path transform="matrix(1,0,0,-1,0,169.2)" stroke-width=".6" stroke-linecap="square" stroke-linejoin="round" fill="none" stroke="#e5e7eb" d="M383.64103 112.362789H508.32"/>
</g>
<path transform="matrix(1,0,0,-1,0,169.2)" d="M383.64103 112.362789H380.14103"/>
<path transform="matrix(1,0,0,-1,0,169.2)" stroke-width=".8" stroke-linecap="butt" stroke-linejoin="round" fill="none" stroke="#000000" d="M383.64103 112.362789H380.14103"/>
<use data-text="0" xlink:href="#font_2_8" transform="matrix(8,0,0,-8,358.8129,59.876276)"/>
<use data-text="." xlink:href="#font_2_7" transform="matrix(8,0,0,-8,363.90483,59.876276)"/>
<use data-text="2" xlink:href="#font_2_10" transform="matrix(8,0,0,-8,366.4527,59.876276)"/>
<use data-text="2" xlink:href="#font_2_10" transform="matrix(8,0,0,-8,371.54463,59.876276)"/>
<g clip-path="url(#clip_40)">
<path transform="matrix(1,0,0,-1,0,169.2)" stroke-width=".6" stroke-linecap="square" stroke-linejoin="round" fill="none" stroke="#e5e7eb" d="M383.64103 139.52176H508.32"/>
</g>
<path transform="matrix(1,0,0,-1,0,169.2)" d="M383.64103 139.52176H380.14103"/>
<path transform="matrix(1,0,0,-1,0,169.2)" stroke-width=".8" stroke-linecap="butt" stroke-linejoin="round" fill="none" stroke="#000000" d="M383.64103 139.52176H380.14103"/>
<use data-text="0" xlink:href="#font_2_8" transform="matrix(8,0,0,-8,358.8129,32.7173)"/>
<use data-text="." xlink:href="#font_2_7" transform="matrix(8,0,0,-8,363.90483,32.7173)"/>
<use data-text="2" xlink:href="#font_2_10" transform="matrix(8,0,0,-8,366.4527,32.7173)"/>
<use data-text="4" xlink:href="#font_2_12" transform="matrix(8,0,0,-8,371.54463,32.7173)"/>
<use data-text="P" xlink:href="#font_2_22" transform="matrix(0,-9,-9,-0,352.6508,141.47206)"/>
<use data-text="i" xlink:href="#font_2_34" transform="matrix(0,-9,-9,-0,352.6508,136.25356)"/>
<use data-text="x" xlink:href="#font_2_45" transform="matrix(0,-9,-9,-0,352.6508,133.75205)"/>
<use data-text="e" xlink:href="#font_2_30" transform="matrix(0,-9,-9,-0,352.6508,128.70334)"/>
<use data-text="l" xlink:href="#font_2_36" transform="matrix(0,-9,-9,-0,352.6508,123.1742)"/>
<use data-text="-" xlink:href="#font_2_6" transform="matrix(0,-9,-9,-0,352.6508,120.67269)"/>
<use data-text="I" xlink:href="#font_2_19" transform="matrix(0,-9,-9,-0,352.6508,117.42125)"/>
<use data-text="o" xlink:href="#font_2_39" transform="matrix(0,-9,-9,-0,352.6508,114.7643)"/>
<use data-text="U" xlink:href="#font_2_25" transform="matrix(0,-9,-9,-0,352.6508,109.26264)"/>
<use data-text=" " xlink:href="#font_2_3" transform="matrix(0,-9,-9,-0,352.6508,102.66829)"/>
<use data-text="o" xlink:href="#font_2_39" transform="matrix(0,-9,-9,-0,352.6508,99.807758)"/>
<use data-text="n" xlink:href="#font_2_38" transform="matrix(0,-9,-9,-0,352.6508,94.30611)"/>
<use data-text=" " xlink:href="#font_2_3" transform="matrix(0,-9,-9,-0,352.6508,88.60108)"/>
<use data-text="p" xlink:href="#font_2_40" transform="matrix(0,-9,-9,-0,352.6508,85.74055)"/>
<use data-text="r" xlink:href="#font_2_41" transform="matrix(0,-9,-9,-0,352.6508,80.019687)"/>
<use data-text="o" xlink:href="#font_2_39" transform="matrix(0,-9,-9,-0,352.6508,76.52088)"/>
<use data-text="b" xlink:href="#font_2_27" transform="matrix(0,-9,-9,-0,352.6508,71.019229)"/>
<use data-text="l" xlink:href="#font_2_36" transform="matrix(0,-9,-9,-0,352.6508,65.29836)"/>
<use data-text="e" xlink:href="#font_2_30" transform="matrix(0,-9,-9,-0,352.6508,62.796854)"/>
<use data-text="m" xlink:href="#font_2_37" transform="matrix(0,-9,-9,-0,352.6508,57.267717)"/>
<use data-text=" " xlink:href="#font_2_3" transform="matrix(0,-9,-9,-0,352.6508,48.50318)"/>
<use data-text="i" xlink:href="#font_2_34" transform="matrix(0,-9,-9,-0,352.6508,45.642648)"/>
<use data-text="m" xlink:href="#font_2_37" transform="matrix(0,-9,-9,-0,352.6508,43.141138)"/>
<use data-text="a" xlink:href="#font_2_26" transform="matrix(0,-9,-9,-0,352.6508,34.376604)"/>
<use data-text="g" xlink:href="#font_2_32" transform="matrix(0,-9,-9,-0,352.6508,28.859116)"/>
<use data-text="e" xlink:href="#font_2_30" transform="matrix(0,-9,-9,-0,352.6508,23.138253)"/>
<use data-text="s" xlink:href="#font_2_42" transform="matrix(0,-9,-9,-0,352.6508,17.609116)"/>
<g clip-path="url(#clip_41)">
<path transform="matrix(1,0,0,-1,0,169.2)" stroke-width="1.4" stroke-linecap="square" stroke-linejoin="round" fill="none" stroke="#2563a6" d="M400.72035 74.34022 417.79966 132.73203 434.87898 127.300228 469.0376 97.42535 503.1962 74.34022"/>
<g clip-path="url(#clip_42)">
<path transform="matrix(1,0,0,-1,400.72035,94.85978)" d="M0-2C.530406-2 1.03916-1.789267 1.414214-1.414214 1.789267-1.03916 2-.530406 2 0 2 .530406 1.789267 1.03916 1.414214 1.414214 1.03916 1.789267 .530406 2 0 2-.530406 2-1.03916 1.789267-1.414214 1.414214-1.789267 1.03916-2 .530406-2 0-2-.530406-1.789267-1.03916-1.414214-1.414214-1.03916-1.789267-.530406-2 0-2Z" fill="#2563a6"/>
<path transform="matrix(1,0,0,-1,400.72035,94.85978)" stroke-width="1" stroke-linecap="butt" stroke-linejoin="round" fill="none" stroke="#2563a6" d="M0-2C.530406-2 1.03916-1.789267 1.414214-1.414214 1.789267-1.03916 2-.530406 2 0 2 .530406 1.789267 1.03916 1.414214 1.414214 1.03916 1.789267 .530406 2 0 2-.530406 2-1.03916 1.789267-1.414214 1.414214-1.789267 1.03916-2 .530406-2 0-2-.530406-1.789267-1.03916-1.414214-1.414214-1.03916-1.789267-.530406-2 0-2Z"/>
</g>
<g clip-path="url(#clip_43)">
<path transform="matrix(1,0,0,-1,417.79966,36.467985)" d="M0-2C.530406-2 1.03916-1.789267 1.414214-1.414214 1.789267-1.03916 2-.530406 2 0 2 .530406 1.789267 1.03916 1.414214 1.414214 1.03916 1.789267 .530406 2 0 2-.530406 2-1.03916 1.789267-1.414214 1.414214-1.789267 1.03916-2 .530406-2 0-2-.530406-1.789267-1.03916-1.414214-1.414214-1.03916-1.789267-.530406-2 0-2Z" fill="#2563a6"/>
<path transform="matrix(1,0,0,-1,417.79966,36.467985)" stroke-width="1" stroke-linecap="butt" stroke-linejoin="round" fill="none" stroke="#2563a6" d="M0-2C.530406-2 1.03916-1.789267 1.414214-1.414214 1.789267-1.03916 2-.530406 2 0 2 .530406 1.789267 1.03916 1.414214 1.414214 1.03916 1.789267 .530406 2 0 2-.530406 2-1.03916 1.789267-1.414214 1.414214-1.789267 1.03916-2 .530406-2 0-2-.530406-1.789267-1.03916-1.414214-1.414214-1.03916-1.789267-.530406-2 0-2Z"/>
</g>
<g clip-path="url(#clip_44)">
<path transform="matrix(1,0,0,-1,434.87898,41.89978)" d="M0-2C.530406-2 1.03916-1.789267 1.414214-1.414214 1.789267-1.03916 2-.530406 2 0 2 .530406 1.789267 1.03916 1.414214 1.414214 1.03916 1.789267 .530406 2 0 2-.530406 2-1.03916 1.789267-1.414214 1.414214-1.789267 1.03916-2 .530406-2 0-2-.530406-1.789267-1.03916-1.414214-1.414214-1.03916-1.789267-.530406-2 0-2Z" fill="#2563a6"/>
<path transform="matrix(1,0,0,-1,434.87898,41.89978)" stroke-width="1" stroke-linecap="butt" stroke-linejoin="round" fill="none" stroke="#2563a6" d="M0-2C.530406-2 1.03916-1.789267 1.414214-1.414214 1.789267-1.03916 2-.530406 2 0 2 .530406 1.789267 1.03916 1.414214 1.414214 1.03916 1.789267 .530406 2 0 2-.530406 2-1.03916 1.789267-1.414214 1.414214-1.789267 1.03916-2 .530406-2 0-2-.530406-1.789267-1.03916-1.414214-1.414214-1.03916-1.789267-.530406-2 0-2Z"/>
</g>
<g clip-path="url(#clip_45)">
<path transform="matrix(1,0,0,-1,469.0376,71.77466)" d="M0-2C.530406-2 1.03916-1.789267 1.414214-1.414214 1.789267-1.03916 2-.530406 2 0 2 .530406 1.789267 1.03916 1.414214 1.414214 1.03916 1.789267 .530406 2 0 2-.530406 2-1.03916 1.789267-1.414214 1.414214-1.789267 1.03916-2 .530406-2 0-2-.530406-1.789267-1.03916-1.414214-1.414214-1.03916-1.789267-.530406-2 0-2Z" fill="#2563a6"/>
<path transform="matrix(1,0,0,-1,469.0376,71.77466)" stroke-width="1" stroke-linecap="butt" stroke-linejoin="round" fill="none" stroke="#2563a6" d="M0-2C.530406-2 1.03916-1.789267 1.414214-1.414214 1.789267-1.03916 2-.530406 2 0 2 .530406 1.789267 1.03916 1.414214 1.414214 1.03916 1.789267 .530406 2 0 2-.530406 2-1.03916 1.789267-1.414214 1.414214-1.789267 1.03916-2 .530406-2 0-2-.530406-1.789267-1.03916-1.414214-1.414214-1.03916-1.789267-.530406-2 0-2Z"/>
</g>
<g clip-path="url(#clip_46)">
<path transform="matrix(1,0,0,-1,503.19624,94.85979)" d="M0-2C.530406-2 1.03916-1.789267 1.414214-1.414214 1.789267-1.03916 2-.530406 2 0 2 .530406 1.789267 1.03916 1.414214 1.414214 1.03916 1.789267 .530406 2 0 2-.530406 2-1.03916 1.789267-1.414214 1.414214-1.789267 1.03916-2 .530406-2 0-2-.530406-1.789267-1.03916-1.414214-1.414214-1.03916-1.789267-.530406-2 0-2Z" fill="#2563a6"/>
<path transform="matrix(1,0,0,-1,503.19624,94.85979)" stroke-width="1" stroke-linecap="butt" stroke-linejoin="round" fill="none" stroke="#2563a6" d="M0-2C.530406-2 1.03916-1.789267 1.414214-1.414214 1.789267-1.03916 2-.530406 2 0 2 .530406 1.789267 1.03916 1.414214 1.414214 1.03916 1.789267 .530406 2 0 2-.530406 2-1.03916 1.789267-1.414214 1.414214-1.789267 1.03916-2 .530406-2 0-2-.530406-1.789267-1.03916-1.414214-1.414214-1.03916-1.789267-.530406-2 0-2Z"/>
</g>
</g>
<path transform="matrix(1,0,0,-1,0,169.2)" stroke-width=".6" stroke-linecap="square" stroke-miterlimit="10" stroke-linejoin="miter" fill="none" stroke="#7b8289" d="M383.64103 30.885859V153.10126"/>
<path transform="matrix(1,0,0,-1,0,169.2)" stroke-width=".6" stroke-linecap="square" stroke-miterlimit="10" stroke-linejoin="miter" fill="none" stroke="#7b8289" d="M383.64103 30.885859H508.32"/>
<use data-text="0" xlink:href="#font_2_8" transform="matrix(7.5,0,0,-7.5,407.0731,28.467972)"/>
<use data-text="." xlink:href="#font_2_7" transform="matrix(7.5,0,0,-7.5,411.83699,28.467972)"/>
<use data-text="2" xlink:href="#font_2_10" transform="matrix(7.5,0,0,-7.5,414.22859,28.467972)"/>
<use data-text="3" xlink:href="#font_2_11" transform="matrix(7.5,0,0,-7.5,418.99247,28.467972)"/>
<use data-text="5" xlink:href="#font_2_13" transform="matrix(7.5,0,0,-7.5,423.75639,28.467972)"/>
<use data-text="0" xlink:href="#font_2_8" transform="matrix(7.5,0,0,-7.5,437.1524,55.899774)"/>
<use data-text="." xlink:href="#font_2_7" transform="matrix(7.5,0,0,-7.5,441.9163,55.899774)"/>
<use data-text="2" xlink:href="#font_2_10" transform="matrix(7.5,0,0,-7.5,444.3079,55.899774)"/>
<use data-text="3" xlink:href="#font_2_11" transform="matrix(7.5,0,0,-7.5,449.07179,55.899774)"/>
<use data-text="1" xlink:href="#font_2_9" transform="matrix(7.5,0,0,-7.5,453.8357,55.899774)"/>
<use data-text="(" xlink:href="#font_2_4" transform="matrix(9.5,0,0,-9.5,392.4258,10.09874)"/>
<use data-text="c" xlink:href="#font_2_28" transform="matrix(9.5,0,0,-9.5,396.12763,10.09874)"/>
<use data-text=")" xlink:href="#font_2_5" transform="matrix(9.5,0,0,-9.5,401.34825,10.09874)"/>
<use data-text=" " xlink:href="#font_2_3" transform="matrix(9.5,0,0,-9.5,405.05009,10.09874)"/>
<use data-text="T" xlink:href="#font_2_24" transform="matrix(9.5,0,0,-9.5,408.06694,10.09874)"/>
<use data-text="r" xlink:href="#font_2_41" transform="matrix(9.5,0,0,-9.5,412.4747,10.09874)"/>
<use data-text="a" xlink:href="#font_2_26" transform="matrix(9.5,0,0,-9.5,416.37968,10.09874)"/>
<use data-text="i" xlink:href="#font_2_34" transform="matrix(9.5,0,0,-9.5,422.20979,10.09874)"/>
<use data-text="n" xlink:href="#font_2_38" transform="matrix(9.5,0,0,-9.5,424.852,10.09874)"/>
<use data-text="e" xlink:href="#font_2_30" transform="matrix(9.5,0,0,-9.5,430.86964,10.09874)"/>
<use data-text="d" xlink:href="#font_2_29" transform="matrix(9.5,0,0,-9.5,436.71116,10.09874)"/>
<use data-text=" " xlink:href="#font_2_3" transform="matrix(9.5,0,0,-9.5,442.74464,10.09874)"/>
<use data-text="l" xlink:href="#font_2_36" transform="matrix(9.5,0,0,-9.5,445.76148,10.09874)"/>
<use data-text="o" xlink:href="#font_2_39" transform="matrix(9.5,0,0,-9.5,448.4037,10.09874)"/>
<use data-text="c" xlink:href="#font_2_28" transform="matrix(9.5,0,0,-9.5,454.21794,10.09874)"/>
<use data-text="a" xlink:href="#font_2_26" transform="matrix(9.5,0,0,-9.5,459.43855,10.09874)"/>
<use data-text="l" xlink:href="#font_2_36" transform="matrix(9.5,0,0,-9.5,465.26863,10.09874)"/>
<use data-text="i" xlink:href="#font_2_34" transform="matrix(9.5,0,0,-9.5,467.91087,10.09874)"/>
<use data-text="z" xlink:href="#font_2_46" transform="matrix(9.5,0,0,-9.5,470.55308,10.09874)"/>
<use data-text="a" xlink:href="#font_2_26" transform="matrix(9.5,0,0,-9.5,475.5384,10.09874)"/>
<use data-text="t" xlink:href="#font_2_43" transform="matrix(9.5,0,0,-9.5,481.36848,10.09874)"/>
<use data-text="i" xlink:href="#font_2_34" transform="matrix(9.5,0,0,-9.5,485.08638,10.09874)"/>
<use data-text="o" xlink:href="#font_2_39" transform="matrix(9.5,0,0,-9.5,487.72859,10.09874)"/>
<use data-text="n" xlink:href="#font_2_38" transform="matrix(9.5,0,0,-9.5,493.54286,10.09874)"/>
</svg>
